<?xml version="1.0" encoding="utf-8"?>
<svg version="1.1" width="600" height="300" viewBox="214.458 144.312 526.411 166.818" fill="none" stroke="none" stroke-linecap="square" stroke-miterlimit="10" xmlns="http://www.w3.org/2000/svg">
  <clipPath id="g1fbdae4e7bb_0_92.0">
    <path d="M 0 0 L 960 0 L 960 540 L 0 540 L 0 0 Z" clip-rule="nonzero"/>
  </clipPath>
  <g>
    <rect x="0" y="0" width="1000%" height="1000%" fill="white" preserveAspectRatio="xMinYMin meet"/>
    <path fill="#000000" fill-opacity="0.0" d="M 462.243 295.713 C 462.243 304.227 469.146 311.129 477.66 311.129 C 481.748 311.129 485.67 309.505 488.561 306.614 C 491.452 303.723 493.076 299.802 493.076 295.713 C 493.076 287.199 486.174 280.297 477.66 280.297 C 469.146 280.297 462.243 287.199 462.243 295.713 Z" fill-rule="evenodd" clip-path="url(#g1fbdae4e7bb_0_92.0)"/>
    <path stroke="#ffab40" stroke-width="2.0" stroke-linejoin="round" stroke-linecap="butt" d="M 462.243 295.713 C 462.243 304.227 469.146 311.129 477.66 311.129 C 481.748 311.129 485.67 309.505 488.561 306.614 C 491.452 303.723 493.076 299.802 493.076 295.713 C 493.076 287.199 486.174 280.297 477.66 280.297 C 469.146 280.297 462.243 287.199 462.243 295.713 Z" fill-rule="evenodd" clip-path="url(#g1fbdae4e7bb_0_92.0)"/>
    <path fill="#000000" fill-opacity="0.0" d="M 530.504 295.713 C 530.504 304.227 537.406 311.129 545.92 311.129 C 550.009 311.129 553.93 309.505 556.821 306.614 C 559.712 303.723 561.336 299.802 561.336 295.713 C 561.336 287.199 554.434 280.297 545.92 280.297 C 537.406 280.297 530.504 287.199 530.504 295.713 Z" fill-rule="evenodd" clip-path="url(#g1fbdae4e7bb_0_92.0)"/>
    <path stroke="#ffab40" stroke-width="2.0" stroke-linejoin="round" stroke-linecap="butt" d="M 530.504 295.713 C 530.504 304.227 537.406 311.129 545.92 311.129 C 550.009 311.129 553.93 309.505 556.821 306.614 C 559.712 303.723 561.336 299.802 561.336 295.713 C 561.336 287.199 554.434 280.297 545.92 280.297 C 537.406 280.297 530.504 287.199 530.504 295.713 Z" fill-rule="evenodd" clip-path="url(#g1fbdae4e7bb_0_92.0)"/>
    <path fill="#000000" fill-opacity="0.0" d="M 393.983 295.713 C 393.983 304.227 400.885 311.129 409.399 311.129 C 413.488 311.129 417.409 309.505 420.3 306.614 C 423.191 303.723 424.816 299.802 424.816 295.713 C 424.816 287.199 417.913 280.297 409.399 280.297 C 400.885 280.297 393.983 287.199 393.983 295.713 Z" fill-rule="evenodd" clip-path="url(#g1fbdae4e7bb_0_92.0)"/>
    <path stroke="#ffab40" stroke-width="2.0" stroke-linejoin="round" stroke-linecap="butt" d="M 393.983 295.713 C 393.983 304.227 400.885 311.129 409.399 311.129 C 413.488 311.129 417.409 309.505 420.3 306.614 C 423.191 303.723 424.816 299.802 424.816 295.713 C 424.816 287.199 417.913 280.297 409.399 280.297 C 400.885 280.297 393.983 287.199 393.983 295.713 Z" fill-rule="evenodd" clip-path="url(#g1fbdae4e7bb_0_92.0)"/>
    <path fill="#000000" fill-opacity="0.0" d="M 409.399 280.297 L 441.405 204.465" fill-rule="evenodd" clip-path="url(#g1fbdae4e7bb_0_92.0)"/>
    <path stroke="#b7b7b7" stroke-width="2.0" stroke-linejoin="round" stroke-linecap="butt" d="M 409.399 280.297 L 441.405 204.465" fill-rule="evenodd" clip-path="url(#g1fbdae4e7bb_0_92.0)"/>
    <path fill="#000000" fill-opacity="0.0" d="M 545.92 280.297 L 513.915 204.465" fill-rule="evenodd" clip-path="url(#g1fbdae4e7bb_0_92.0)"/>
    <path stroke="#b7b7b7" stroke-width="2.0" stroke-linejoin="round" stroke-linecap="butt" d="M 545.92 280.297 L 513.915 204.465" fill-rule="evenodd" clip-path="url(#g1fbdae4e7bb_0_92.0)"/>
    <path fill="#000000" fill-opacity="0.0" fill-rule="evenodd" clip-path="url(#g1fbdae4e7bb_0_92.0)"/>
    <path stroke="#000000" stroke-width="1.0" stroke-linejoin="round" stroke-linecap="butt" fill-rule="evenodd" clip-path="url(#g1fbdae4e7bb_0_92.0)"/>
    <path fill="#000000" fill-opacity="0.0" fill-rule="evenodd" clip-path="url(#g1fbdae4e7bb_0_92.0)"/>
    <path stroke="#000000" stroke-width="1.0" stroke-linejoin="round" stroke-linecap="butt" fill-rule="evenodd" clip-path="url(#g1fbdae4e7bb_0_92.0)"/>
    <path fill="#000000" fill-opacity="0.0" d="M 477.66 280.297 L 441.4 204.465" fill-rule="evenodd" clip-path="url(#g1fbdae4e7bb_0_92.0)"/>
    <path stroke="#b7b7b7" stroke-width="2.0" stroke-linejoin="round" stroke-linecap="butt" d="M 477.66 280.297 L 441.4 204.465" fill-rule="evenodd" clip-path="url(#g1fbdae4e7bb_0_92.0)"/>
    <path fill="#000000" fill-opacity="0.0" d="M 477.66 280.297 L 513.92 204.465" fill-rule="evenodd" clip-path="url(#g1fbdae4e7bb_0_92.0)"/>
    <path stroke="#ffab40" stroke-width="2.0" stroke-linejoin="round" stroke-linecap="butt" d="M 477.66 280.297 L 513.92 204.465" fill-rule="evenodd" clip-path="url(#g1fbdae4e7bb_0_92.0)"/>
    <path fill="#000000" fill-opacity="0.0" d="M 409.399 280.297 L 513.924 204.465" fill-rule="evenodd" clip-path="url(#g1fbdae4e7bb_0_92.0)"/>
    <path stroke="#ffab40" stroke-width="2.0" stroke-linejoin="round" stroke-linecap="butt" d="M 409.399 280.297 L 513.924 204.465" fill-rule="evenodd" clip-path="url(#g1fbdae4e7bb_0_92.0)"/>
    <path fill="#000000" fill-opacity="0.0" d="M 545.92 280.297 L 441.395 204.465" fill-rule="evenodd" clip-path="url(#g1fbdae4e7bb_0_92.0)"/>
    <path stroke="#b7b7b7" stroke-width="2.0" stroke-linejoin="round" stroke-linecap="butt" d="M 545.92 280.297 L 441.395 204.465" fill-rule="evenodd" clip-path="url(#g1fbdae4e7bb_0_92.0)"/>
    <path fill="#000000" fill-opacity="0.0" d="M 498.504 189.059 C 498.504 197.574 505.406 204.476 513.92 204.476 C 518.009 204.476 521.93 202.851 524.821 199.96 C 527.712 197.069 529.336 193.148 529.336 189.059 C 529.336 180.545 522.434 173.643 513.92 173.643 C 505.406 173.643 498.504 180.545 498.504 189.059 Z" fill-rule="evenodd" clip-path="url(#g1fbdae4e7bb_0_92.0)"/>
    <path stroke="#ffab40" stroke-width="2.0" stroke-linejoin="round" stroke-linecap="butt" d="M 498.504 189.059 C 498.504 197.574 505.406 204.476 513.92 204.476 C 518.009 204.476 521.93 202.851 524.821 199.96 C 527.712 197.069 529.336 193.148 529.336 189.059 C 529.336 180.545 522.434 173.643 513.92 173.643 C 505.406 173.643 498.504 180.545 498.504 189.059 Z" fill-rule="evenodd" clip-path="url(#g1fbdae4e7bb_0_92.0)"/>
    <path fill="#000000" fill-opacity="0.0" d="M 425.983 189.059 C 425.983 197.574 432.885 204.476 441.399 204.476 C 445.488 204.476 449.409 202.851 452.3 199.96 C 455.191 197.069 456.816 193.148 456.816 189.059 C 456.816 180.545 449.913 173.643 441.399 173.643 C 432.885 173.643 425.983 180.545 425.983 189.059 Z" fill-rule="evenodd" clip-path="url(#g1fbdae4e7bb_0_92.0)"/>
    <path stroke="#ffab40" stroke-width="2.0" stroke-linejoin="round" stroke-linecap="butt" d="M 425.983 189.059 C 425.983 197.574 432.885 204.476 441.399 204.476 C 445.488 204.476 449.409 202.851 452.3 199.96 C 455.191 197.069 456.816 193.148 456.816 189.059 C 456.816 180.545 449.913 173.643 441.399 173.643 C 432.885 173.643 425.983 180.545 425.983 189.059 Z" fill-rule="evenodd" clip-path="url(#g1fbdae4e7bb_0_92.0)"/>
    <path fill="#000000" fill-opacity="0.0" d="M 282.715 295.711 C 282.715 304.225 289.617 311.127 298.131 311.127 C 302.22 311.127 306.141 309.503 309.032 306.612 C 311.923 303.721 313.547 299.8 313.547 295.711 C 313.547 287.197 306.645 280.296 298.131 280.296 C 289.617 280.296 282.715 287.197 282.715 295.711 Z" fill-rule="evenodd" clip-path="url(#g1fbdae4e7bb_0_92.0)"/>
    <path stroke="#ffab40" stroke-width="2.0" stroke-linejoin="round" stroke-linecap="butt" d="M 282.715 295.711 C 282.715 304.225 289.617 311.127 298.131 311.127 C 302.22 311.127 306.141 309.503 309.032 306.612 C 311.923 303.721 313.547 299.8 313.547 295.711 C 313.547 287.197 306.645 280.296 298.131 280.296 C 289.617 280.296 282.715 287.197 282.715 295.711 Z" fill-rule="evenodd" clip-path="url(#g1fbdae4e7bb_0_92.0)"/>
    <path fill="#000000" fill-opacity="0.0" d="M 350.973 295.711 C 350.973 304.225 357.875 311.127 366.389 311.127 C 370.477 311.127 374.398 309.503 377.289 306.612 C 380.18 303.721 381.804 299.8 381.804 295.711 C 381.804 287.197 374.903 280.296 366.389 280.296 C 357.875 280.296 350.973 287.197 350.973 295.711 Z" fill-rule="evenodd" clip-path="url(#g1fbdae4e7bb_0_92.0)"/>
    <path stroke="#ffab40" stroke-width="2.0" stroke-linejoin="round" stroke-linecap="butt" d="M 350.973 295.711 C 350.973 304.225 357.875 311.127 366.389 311.127 C 370.477 311.127 374.398 309.503 377.289 306.612 C 380.18 303.721 381.804 299.8 381.804 295.711 C 381.804 287.197 374.903 280.296 366.389 280.296 C 357.875 280.296 350.973 287.197 350.973 295.711 Z" fill-rule="evenodd" clip-path="url(#g1fbdae4e7bb_0_92.0)"/>
    <path fill="#000000" fill-opacity="0.0" d="M 214.458 295.711 C 214.458 304.225 221.36 311.127 229.873 311.127 C 233.962 311.127 237.883 309.503 240.774 306.612 C 243.665 303.721 245.289 299.8 245.289 295.711 C 245.289 287.197 238.387 280.296 229.873 280.296 C 221.36 280.296 214.458 287.197 214.458 295.711 Z" fill-rule="evenodd" clip-path="url(#g1fbdae4e7bb_0_92.0)"/>
    <path stroke="#ffab40" stroke-width="2.0" stroke-linejoin="round" stroke-linecap="butt" d="M 214.458 295.711 C 214.458 304.225 221.36 311.127 229.873 311.127 C 233.962 311.127 237.883 309.503 240.774 306.612 C 243.665 303.721 245.289 299.8 245.289 295.711 C 245.289 287.197 238.387 280.296 229.873 280.296 C 221.36 280.296 214.458 287.197 214.458 295.711 Z" fill-rule="evenodd" clip-path="url(#g1fbdae4e7bb_0_92.0)"/>
    <path fill="#000000" fill-opacity="0.0" fill-rule="evenodd" clip-path="url(#g1fbdae4e7bb_0_92.0)"/>
    <path stroke="#000000" stroke-width="1.0" stroke-linejoin="round" stroke-linecap="butt" fill-rule="evenodd" clip-path="url(#g1fbdae4e7bb_0_92.0)"/>
    <path fill="#000000" fill-opacity="0.0" fill-rule="evenodd" clip-path="url(#g1fbdae4e7bb_0_92.0)"/>
    <path stroke="#000000" stroke-width="1.0" stroke-linejoin="round" stroke-linecap="butt" fill-rule="evenodd" clip-path="url(#g1fbdae4e7bb_0_92.0)"/>
    <path fill="#000000" fill-opacity="0.0" d="M 298.131 280.296 L 334.389 204.467" fill-rule="evenodd" clip-path="url(#g1fbdae4e7bb_0_92.0)"/>
    <path stroke="#ffab40" stroke-width="2.0" stroke-linejoin="round" stroke-linecap="butt" d="M 298.131 280.296 L 334.389 204.467" fill-rule="evenodd" clip-path="url(#g1fbdae4e7bb_0_92.0)"/>
    <path fill="#000000" fill-opacity="0.0" d="M 229.873 280.296 L 334.394 204.467" fill-rule="evenodd" clip-path="url(#g1fbdae4e7bb_0_92.0)"/>
    <path stroke="#ffab40" stroke-width="2.0" stroke-linejoin="round" stroke-linecap="butt" d="M 229.873 280.296 L 334.394 204.467" fill-rule="evenodd" clip-path="url(#g1fbdae4e7bb_0_92.0)"/>
    <path fill="#000000" fill-opacity="0.0" d="M 318.973 189.063 C 318.973 197.577 325.875 204.479 334.389 204.479 C 338.477 204.479 342.398 202.855 345.289 199.964 C 348.18 197.073 349.804 193.152 349.804 189.063 C 349.804 180.549 342.903 173.648 334.389 173.648 C 325.875 173.648 318.973 180.549 318.973 189.063 Z" fill-rule="evenodd" clip-path="url(#g1fbdae4e7bb_0_92.0)"/>
    <path stroke="#ffab40" stroke-width="2.0" stroke-linejoin="round" stroke-linecap="butt" d="M 318.973 189.063 C 318.973 197.577 325.875 204.479 334.389 204.479 C 338.477 204.479 342.398 202.855 345.289 199.964 C 348.18 197.073 349.804 193.152 349.804 189.063 C 349.804 180.549 342.903 173.648 334.389 173.648 C 325.875 173.648 318.973 180.549 318.973 189.063 Z" fill-rule="evenodd" clip-path="url(#g1fbdae4e7bb_0_92.0)"/>
    <path fill="#000000" fill-opacity="0.0" d="M 246.458 189.063 C 246.458 197.577 253.36 204.479 261.873 204.479 C 265.962 204.479 269.883 202.855 272.774 199.964 C 275.665 197.073 277.289 193.152 277.289 189.063 C 277.289 180.549 270.387 173.648 261.873 173.648 C 253.36 173.648 246.458 180.549 246.458 189.063 Z" fill-rule="evenodd" clip-path="url(#g1fbdae4e7bb_0_92.0)"/>
    <path stroke="#b7b7b7" stroke-width="2.0" stroke-linejoin="round" stroke-linecap="butt" stroke-dasharray="8.0,6.0" d="M 246.458 189.063 C 246.458 197.577 253.36 204.479 261.873 204.479 C 265.962 204.479 269.883 202.855 272.774 199.964 C 275.665 197.073 277.289 193.152 277.289 189.063 C 277.289 180.549 270.387 173.648 261.873 173.648 C 253.36 173.648 246.458 180.549 246.458 189.063 Z" fill-rule="evenodd" clip-path="url(#g1fbdae4e7bb_0_92.0)"/>
    <path fill="#000000" fill-opacity="0.0" d="M 298.131 280.296 L 261.873 204.467" fill-rule="evenodd" clip-path="url(#g1fbdae4e7bb_0_92.0)"/>
    <path stroke="#b7b7b7" stroke-width="1.0" stroke-linejoin="round" stroke-linecap="butt" stroke-dasharray="4.0,3.0" d="M 298.131 280.296 L 261.873 204.467" fill-rule="evenodd" clip-path="url(#g1fbdae4e7bb_0_92.0)"/>
    <path fill="#000000" fill-opacity="0.0" d="M 366.389 280.296 L 261.868 204.467" fill-rule="evenodd" clip-path="url(#g1fbdae4e7bb_0_92.0)"/>
    <path stroke="#b7b7b7" stroke-width="1.0" stroke-linejoin="round" stroke-linecap="butt" stroke-dasharray="4.0,3.0" d="M 366.389 280.296 L 261.868 204.467" fill-rule="evenodd" clip-path="url(#g1fbdae4e7bb_0_92.0)"/>
    <path fill="#000000" fill-opacity="0.0" d="M 366.389 280.296 L 334.385 204.467" fill-rule="evenodd" clip-path="url(#g1fbdae4e7bb_0_92.0)"/>
    <path stroke="#b7b7b7" stroke-width="1.0" stroke-linejoin="round" stroke-linecap="butt" stroke-dasharray="4.0,3.0" d="M 366.389 280.296 L 334.385 204.467" fill-rule="evenodd" clip-path="url(#g1fbdae4e7bb_0_92.0)"/>
    <path fill="#000000" fill-opacity="0.0" d="M 229.873 280.296 L 261.87 204.483" fill-rule="evenodd" clip-path="url(#g1fbdae4e7bb_0_92.0)"/>
    <path stroke="#b7b7b7" stroke-width="1.0" stroke-linejoin="round" stroke-linecap="butt" stroke-dasharray="4.0,3.0" d="M 229.873 280.296 L 261.87 204.483" fill-rule="evenodd" clip-path="url(#g1fbdae4e7bb_0_92.0)"/>
    <path fill="#000000" fill-opacity="0.0" d="M 558.417 144.312 L 624.748 144.312 L 624.748 160.753 L 558.417 160.753 L 558.417 144.312 Z" fill-rule="evenodd" clip-path="url(#g1fbdae4e7bb_0_92.0)"/>
    <path fill="#595959" d="M 562.749 156.373 L 562.749 149.263 L 563.64 149.263 L 563.64 155.592 L 566.937 155.592 L 566.937 156.373 L 562.749 156.373 Z M 570.257 156.498 C 569.475 156.498 568.84 156.248 568.35 155.748 C 567.871 155.237 567.632 154.586 567.632 153.795 C 567.632 153.034 567.871 152.394 568.35 151.873 C 568.84 151.352 569.444 151.092 570.163 151.092 C 570.903 151.092 571.501 151.352 571.96 151.873 C 572.418 152.383 572.647 153.045 572.647 153.857 L 572.647 154.06 L 568.475 154.06 C 568.507 154.581 568.694 155.008 569.038 155.342 C 569.392 155.675 569.824 155.842 570.335 155.842 C 570.96 155.842 571.486 155.623 571.913 155.185 L 572.304 155.717 C 571.772 156.237 571.09 156.498 570.257 156.498 Z M 571.85 153.467 C 571.85 152.998 571.694 152.597 571.382 152.263 C 571.069 151.93 570.663 151.763 570.163 151.763 C 569.684 151.763 569.283 151.93 568.96 152.263 C 568.647 152.597 568.486 152.998 568.475 153.467 L 571.85 153.467 Z M 577.147 156.373 L 577.147 155.779 C 576.72 156.258 576.152 156.498 575.444 156.498 C 574.923 156.498 574.491 156.336 574.147 156.013 C 573.814 155.68 573.647 155.274 573.647 154.795 C 573.647 154.295 573.814 153.888 574.147 153.576 C 574.491 153.263 574.923 153.107 575.444 153.107 C 576.183 153.107 576.751 153.342 577.147 153.81 L 577.147 152.873 C 577.147 152.529 577.022 152.263 576.772 152.076 C 576.532 151.888 576.225 151.795 575.85 151.795 C 575.246 151.795 574.72 152.029 574.272 152.498 L 573.897 151.951 C 574.449 151.378 575.136 151.092 575.959 151.092 C 576.584 151.092 577.069 151.248 577.412 151.56 C 577.767 151.862 577.944 152.289 577.944 152.842 L 577.944 156.373 L 577.147 156.373 Z M 575.725 155.92 C 576.36 155.92 576.834 155.706 577.147 155.279 L 577.147 154.31 C 576.834 153.883 576.36 153.67 575.725 153.67 C 575.35 153.67 575.043 153.779 574.803 153.998 C 574.574 154.206 574.459 154.477 574.459 154.81 C 574.459 155.133 574.574 155.399 574.803 155.607 C 575.043 155.816 575.35 155.92 575.725 155.92 Z M 581.169 156.498 C 580.304 156.498 579.617 156.227 579.107 155.685 L 579.513 155.123 C 579.679 155.321 579.914 155.493 580.216 155.638 C 580.518 155.784 580.851 155.857 581.216 155.857 C 581.612 155.857 581.909 155.774 582.107 155.607 C 582.315 155.441 582.419 155.227 582.419 154.967 C 582.419 154.737 582.304 154.56 582.075 154.435 C 581.857 154.3 581.445 154.159 580.841 154.013 C 580.32 153.909 579.919 153.743 579.638 153.513 C 579.367 153.284 579.232 152.972 579.232 152.576 C 579.232 152.149 579.403 151.795 579.747 151.513 C 580.101 151.232 580.57 151.092 581.153 151.092 C 581.924 151.092 582.56 151.342 583.06 151.842 L 582.685 152.404 C 582.528 152.217 582.315 152.06 582.044 151.935 C 581.784 151.81 581.487 151.748 581.153 151.748 C 580.799 151.748 580.518 151.826 580.31 151.982 C 580.112 152.138 580.013 152.331 580.013 152.56 C 580.013 152.769 580.127 152.935 580.357 153.06 C 580.586 153.175 581.002 153.295 581.607 153.42 C 582.127 153.545 582.523 153.732 582.794 153.982 C 583.065 154.222 583.2 154.545 583.2 154.951 C 583.2 155.42 583.013 155.795 582.638 156.076 C 582.273 156.357 581.784 156.498 581.169 156.498 Z M 585.796 156.498 C 585.036 156.498 584.655 156.097 584.655 155.295 L 584.655 151.935 L 583.812 151.935 L 583.812 151.232 L 584.655 151.232 L 584.655 149.826 L 585.468 149.826 L 585.468 151.232 L 586.499 151.232 L 586.499 151.935 L 585.468 151.935 L 585.468 155.123 C 585.468 155.321 585.51 155.482 585.593 155.607 C 585.676 155.722 585.807 155.779 585.984 155.779 C 586.202 155.779 586.385 155.711 586.53 155.576 L 586.765 156.17 C 586.546 156.388 586.223 156.498 585.796 156.498 Z M 592.725 156.498 C 591.579 156.498 590.668 156.123 589.991 155.373 L 590.506 154.701 C 590.798 155.024 591.137 155.274 591.522 155.451 C 591.918 155.628 592.329 155.717 592.756 155.717 C 593.267 155.717 593.673 155.602 593.975 155.373 C 594.277 155.144 594.428 154.847 594.428 154.482 C 594.428 153.92 593.986 153.519 593.1 153.279 C 592.059 153.008 591.392 152.789 591.1 152.623 C 590.819 152.456 590.6 152.253 590.444 152.013 C 590.288 151.763 590.21 151.467 590.21 151.123 C 590.21 150.56 590.439 150.092 590.897 149.717 C 591.355 149.342 591.939 149.154 592.647 149.154 C 593.72 149.154 594.564 149.487 595.178 150.154 L 594.647 150.795 C 594.137 150.232 593.449 149.951 592.585 149.951 C 592.158 149.951 591.809 150.055 591.538 150.263 C 591.267 150.461 591.131 150.732 591.131 151.076 C 591.131 151.326 591.246 151.539 591.475 151.717 C 591.704 151.883 592.033 152.024 592.46 152.138 C 593.47 152.409 594.121 152.633 594.413 152.81 C 594.715 152.987 594.944 153.206 595.1 153.467 C 595.256 153.727 595.335 154.045 595.335 154.42 C 595.335 155.066 595.095 155.576 594.616 155.951 C 594.147 156.316 593.517 156.498 592.725 156.498 Z M 599.845 156.373 L 599.845 155.779 C 599.418 156.258 598.85 156.498 598.142 156.498 C 597.621 156.498 597.189 156.336 596.845 156.013 C 596.512 155.68 596.345 155.274 596.345 154.795 C 596.345 154.295 596.512 153.888 596.845 153.576 C 597.189 153.263 597.621 153.107 598.142 153.107 C 598.881 153.107 599.449 153.342 599.845 153.81 L 599.845 152.873 C 599.845 152.529 599.72 152.263 599.47 152.076 C 599.23 151.888 598.923 151.795 598.548 151.795 C 597.944 151.795 597.418 152.029 596.97 152.498 L 596.595 151.951 C 597.147 151.378 597.834 151.092 598.657 151.092 C 599.282 151.092 599.767 151.248 600.11 151.56 C 600.465 151.862 600.642 152.289 600.642 152.842 L 600.642 156.373 L 599.845 156.373 Z M 598.423 155.92 C 599.058 155.92 599.532 155.706 599.845 155.279 L 599.845 154.31 C 599.532 153.883 599.058 153.67 598.423 153.67 C 598.048 153.67 597.741 153.779 597.501 153.998 C 597.272 154.206 597.157 154.477 597.157 154.81 C 597.157 155.133 597.272 155.399 597.501 155.607 C 597.741 155.816 598.048 155.92 598.423 155.92 Z M 602.242 156.373 L 602.242 149.263 L 603.039 149.263 L 603.039 156.373 L 602.242 156.373 Z M 605.03 150.498 C 604.895 150.498 604.77 150.446 604.655 150.342 C 604.551 150.237 604.499 150.107 604.499 149.951 C 604.499 149.805 604.551 149.68 604.655 149.576 C 604.77 149.472 604.895 149.42 605.03 149.42 C 605.187 149.42 605.317 149.472 605.421 149.576 C 605.525 149.68 605.577 149.805 605.577 149.951 C 605.577 150.107 605.525 150.237 605.421 150.342 C 605.317 150.446 605.187 150.498 605.03 150.498 Z M 604.64 156.373 L 604.64 151.232 L 605.437 151.232 L 605.437 156.373 L 604.64 156.373 Z M 609.365 156.498 C 608.584 156.498 607.949 156.248 607.459 155.748 C 606.98 155.237 606.74 154.586 606.74 153.795 C 606.74 153.034 606.98 152.394 607.459 151.873 C 607.949 151.352 608.553 151.092 609.272 151.092 C 610.011 151.092 610.61 151.352 611.069 151.873 C 611.527 152.383 611.756 153.045 611.756 153.857 L 611.756 154.06 L 607.584 154.06 C 607.615 154.581 607.803 155.008 608.147 155.342 C 608.501 155.675 608.933 155.842 609.444 155.842 C 610.069 155.842 610.595 155.623 611.022 155.185 L 611.412 155.717 C 610.881 156.237 610.199 156.498 609.365 156.498 Z M 610.959 153.467 C 610.959 152.998 610.803 152.597 610.49 152.263 C 610.178 151.93 609.772 151.763 609.272 151.763 C 608.793 151.763 608.392 151.93 608.069 152.263 C 607.756 152.597 607.595 152.998 607.584 153.467 L 610.959 153.467 Z M 616.506 156.373 L 616.506 152.998 C 616.506 152.55 616.402 152.243 616.193 152.076 C 615.985 151.899 615.709 151.81 615.365 151.81 C 615.063 151.81 614.766 151.894 614.474 152.06 C 614.193 152.217 613.98 152.399 613.834 152.607 L 613.834 156.373 L 613.037 156.373 L 613.037 151.232 L 613.834 151.232 L 613.834 151.967 C 614.053 151.717 614.323 151.508 614.646 151.342 C 614.98 151.175 615.323 151.092 615.678 151.092 C 616.771 151.092 617.318 151.649 617.318 152.763 L 617.318 156.373 L 616.506 156.373 Z M 620.205 156.498 C 619.445 156.498 619.065 156.097 619.065 155.295 L 619.065 151.935 L 618.221 151.935 L 618.221 151.232 L 619.065 151.232 L 619.065 149.826 L 619.877 149.826 L 619.877 151.232 L 620.909 151.232 L 620.909 151.935 L 619.877 151.935 L 619.877 155.123 C 619.877 155.321 619.919 155.482 620.002 155.607 C 620.086 155.722 620.216 155.779 620.393 155.779 C 620.612 155.779 620.794 155.711 620.94 155.576 L 621.174 156.17 C 620.955 156.388 620.633 156.498 620.205 156.498 Z" fill-rule="nonzero" clip-path="url(#g1fbdae4e7bb_0_92.0)"/>
    <path fill="#000000" fill-opacity="0.0" d="M 628.211 152.533 L 648.778 152.533" fill-rule="evenodd" clip-path="url(#g1fbdae4e7bb_0_92.0)"/>
    <path stroke="#b7b7b7" stroke-width="2.0" stroke-linejoin="round" stroke-linecap="butt" d="M 628.211 152.533 L 648.778 152.533" fill-rule="evenodd" clip-path="url(#g1fbdae4e7bb_0_92.0)"/>
    <path fill="#000000" fill-opacity="0.0" d="M 461.266 144.312 L 521.172 144.312 L 521.172 160.753 L 461.266 160.753 L 461.266 144.312 Z" fill-rule="evenodd" clip-path="url(#g1fbdae4e7bb_0_92.0)"/>
    <path fill="#595959" d="M 469.518 156.373 L 469.518 150.529 L 467.097 156.373 L 466.737 156.373 L 464.331 150.529 L 464.331 156.373 L 463.44 156.373 L 463.44 149.263 L 464.706 149.263 L 466.925 154.607 L 469.128 149.263 L 470.409 149.263 L 470.409 156.373 L 469.518 156.373 Z M 474.28 156.498 C 473.53 156.498 472.915 156.248 472.436 155.748 C 471.968 155.237 471.733 154.586 471.733 153.795 C 471.733 153.003 471.968 152.357 472.436 151.857 C 472.915 151.347 473.53 151.092 474.28 151.092 C 475.03 151.092 475.639 151.347 476.108 151.857 C 476.587 152.357 476.827 153.003 476.827 153.795 C 476.827 154.586 476.587 155.237 476.108 155.748 C 475.639 156.248 475.03 156.498 474.28 156.498 Z M 474.28 155.779 C 474.78 155.779 475.186 155.597 475.499 155.232 C 475.822 154.857 475.983 154.378 475.983 153.795 C 475.983 153.222 475.822 152.748 475.499 152.373 C 475.186 151.998 474.78 151.81 474.28 151.81 C 473.78 151.81 473.369 151.998 473.046 152.373 C 472.723 152.737 472.561 153.211 472.561 153.795 C 472.561 154.388 472.723 154.868 473.046 155.232 C 473.369 155.597 473.78 155.779 474.28 155.779 Z M 479.75 156.498 C 478.886 156.498 478.198 156.227 477.688 155.685 L 478.094 155.123 C 478.261 155.321 478.495 155.493 478.797 155.638 C 479.099 155.784 479.433 155.857 479.797 155.857 C 480.193 155.857 480.49 155.774 480.688 155.607 C 480.896 155.441 481 155.227 481 154.967 C 481 154.737 480.886 154.56 480.657 154.435 C 480.438 154.3 480.027 154.159 479.422 154.013 C 478.902 153.909 478.5 153.743 478.219 153.513 C 477.948 153.284 477.813 152.972 477.813 152.576 C 477.813 152.149 477.985 151.795 478.329 151.513 C 478.683 151.232 479.152 151.092 479.735 151.092 C 480.506 151.092 481.141 151.342 481.641 151.842 L 481.266 152.404 C 481.11 152.217 480.896 152.06 480.625 151.935 C 480.365 151.81 480.068 151.748 479.735 151.748 C 479.381 151.748 479.099 151.826 478.891 151.982 C 478.693 152.138 478.594 152.331 478.594 152.56 C 478.594 152.769 478.709 152.935 478.938 153.06 C 479.167 153.175 479.584 153.295 480.188 153.42 C 480.709 153.545 481.105 153.732 481.375 153.982 C 481.646 154.222 481.782 154.545 481.782 154.951 C 481.782 155.42 481.594 155.795 481.219 156.076 C 480.855 156.357 480.365 156.498 479.75 156.498 Z M 484.378 156.498 C 483.617 156.498 483.237 156.097 483.237 155.295 L 483.237 151.935 L 482.393 151.935 L 482.393 151.232 L 483.237 151.232 L 483.237 149.826 L 484.049 149.826 L 484.049 151.232 L 485.081 151.232 L 485.081 151.935 L 484.049 151.935 L 484.049 155.123 C 484.049 155.321 484.091 155.482 484.174 155.607 C 484.258 155.722 484.388 155.779 484.565 155.779 C 484.784 155.779 484.966 155.711 485.112 155.576 L 485.346 156.17 C 485.128 156.388 484.805 156.498 484.378 156.498 Z M 491.307 156.498 C 490.161 156.498 489.249 156.123 488.572 155.373 L 489.088 154.701 C 489.38 155.024 489.718 155.274 490.104 155.451 C 490.499 155.628 490.911 155.717 491.338 155.717 C 491.848 155.717 492.255 155.602 492.557 155.373 C 492.859 155.144 493.01 154.847 493.01 154.482 C 493.01 153.92 492.567 153.519 491.682 153.279 C 490.64 153.008 489.973 152.789 489.682 152.623 C 489.4 152.456 489.182 152.253 489.025 152.013 C 488.869 151.763 488.791 151.467 488.791 151.123 C 488.791 150.56 489.02 150.092 489.479 149.717 C 489.937 149.342 490.52 149.154 491.229 149.154 C 492.302 149.154 493.145 149.487 493.76 150.154 L 493.229 150.795 C 492.718 150.232 492.031 149.951 491.166 149.951 C 490.739 149.951 490.39 150.055 490.119 150.263 C 489.848 150.461 489.713 150.732 489.713 151.076 C 489.713 151.326 489.828 151.539 490.057 151.717 C 490.286 151.883 490.614 152.024 491.041 152.138 C 492.052 152.409 492.703 152.633 492.994 152.81 C 493.296 152.987 493.525 153.206 493.682 153.467 C 493.838 153.727 493.916 154.045 493.916 154.42 C 493.916 155.066 493.677 155.576 493.197 155.951 C 492.729 156.316 492.098 156.498 491.307 156.498 Z M 498.426 156.373 L 498.426 155.779 C 497.999 156.258 497.432 156.498 496.723 156.498 C 496.202 156.498 495.77 156.336 495.426 156.013 C 495.093 155.68 494.926 155.274 494.926 154.795 C 494.926 154.295 495.093 153.888 495.426 153.576 C 495.77 153.263 496.202 153.107 496.723 153.107 C 497.463 153.107 498.031 153.342 498.426 153.81 L 498.426 152.873 C 498.426 152.529 498.301 152.263 498.051 152.076 C 497.812 151.888 497.504 151.795 497.129 151.795 C 496.525 151.795 495.999 152.029 495.551 152.498 L 495.176 151.951 C 495.728 151.378 496.416 151.092 497.239 151.092 C 497.864 151.092 498.348 151.248 498.692 151.56 C 499.046 151.862 499.223 152.289 499.223 152.842 L 499.223 156.373 L 498.426 156.373 Z M 497.004 155.92 C 497.64 155.92 498.114 155.706 498.426 155.279 L 498.426 154.31 C 498.114 153.883 497.64 153.67 497.004 153.67 C 496.629 153.67 496.322 153.779 496.083 153.998 C 495.853 154.206 495.739 154.477 495.739 154.81 C 495.739 155.133 495.853 155.399 496.083 155.607 C 496.322 155.816 496.629 155.92 497.004 155.92 Z M 500.824 156.373 L 500.824 149.263 L 501.62 149.263 L 501.62 156.373 L 500.824 156.373 Z M 503.612 150.498 C 503.476 150.498 503.351 150.446 503.237 150.342 C 503.133 150.237 503.081 150.107 503.081 149.951 C 503.081 149.805 503.133 149.68 503.237 149.576 C 503.351 149.472 503.476 149.42 503.612 149.42 C 503.768 149.42 503.898 149.472 504.002 149.576 C 504.107 149.68 504.159 149.805 504.159 149.951 C 504.159 150.107 504.107 150.237 504.002 150.342 C 503.898 150.446 503.768 150.498 503.612 150.498 Z M 503.221 156.373 L 503.221 151.232 L 504.018 151.232 L 504.018 156.373 L 503.221 156.373 Z M 507.947 156.498 C 507.166 156.498 506.53 156.248 506.041 155.748 C 505.562 155.237 505.322 154.586 505.322 153.795 C 505.322 153.034 505.562 152.394 506.041 151.873 C 506.53 151.352 507.134 151.092 507.853 151.092 C 508.593 151.092 509.192 151.352 509.65 151.873 C 510.108 152.383 510.338 153.045 510.338 153.857 L 510.338 154.06 L 506.166 154.06 C 506.197 154.581 506.384 155.008 506.728 155.342 C 507.082 155.675 507.515 155.842 508.025 155.842 C 508.65 155.842 509.176 155.623 509.603 155.185 L 509.994 155.717 C 509.463 156.237 508.78 156.498 507.947 156.498 Z M 509.541 153.467 C 509.541 152.998 509.384 152.597 509.072 152.263 C 508.759 151.93 508.353 151.763 507.853 151.763 C 507.374 151.763 506.973 151.93 506.65 152.263 C 506.338 152.597 506.176 152.998 506.166 153.467 L 509.541 153.467 Z M 515.087 156.373 L 515.087 152.998 C 515.087 152.55 514.983 152.243 514.775 152.076 C 514.566 151.899 514.29 151.81 513.947 151.81 C 513.644 151.81 513.348 151.894 513.056 152.06 C 512.775 152.217 512.561 152.399 512.415 152.607 L 512.415 156.373 L 511.618 156.373 L 511.618 151.232 L 512.415 151.232 L 512.415 151.967 C 512.634 151.717 512.905 151.508 513.228 151.342 C 513.561 151.175 513.905 151.092 514.259 151.092 C 515.353 151.092 515.9 151.649 515.9 152.763 L 515.9 156.373 L 515.087 156.373 Z M 518.787 156.498 C 518.027 156.498 517.646 156.097 517.646 155.295 L 517.646 151.935 L 516.803 151.935 L 516.803 151.232 L 517.646 151.232 L 517.646 149.826 L 518.459 149.826 L 518.459 151.232 L 519.49 151.232 L 519.49 151.935 L 518.459 151.935 L 518.459 155.123 C 518.459 155.321 518.5 155.482 518.584 155.607 C 518.667 155.722 518.797 155.779 518.974 155.779 C 519.193 155.779 519.375 155.711 519.521 155.576 L 519.756 156.17 C 519.537 156.388 519.214 156.498 518.787 156.498 Z" fill-rule="nonzero" clip-path="url(#g1fbdae4e7bb_0_92.0)"/>
    <path fill="#000000" fill-opacity="0.0" d="M 527.335 152.533 L 547.902 152.533" fill-rule="evenodd" clip-path="url(#g1fbdae4e7bb_0_92.0)"/>
    <path stroke="#ffab40" stroke-width="2.0" stroke-linejoin="round" stroke-linecap="butt" d="M 527.335 152.533 L 547.902 152.533" fill-rule="evenodd" clip-path="url(#g1fbdae4e7bb_0_92.0)"/>
    <path fill="#000000" fill-opacity="0.0" d="M 654.49 144.312 L 714.395 144.312 L 714.395 160.753 L 654.49 160.753 L 654.49 144.312 Z" fill-rule="evenodd" clip-path="url(#g1fbdae4e7bb_0_92.0)"/>
    <path fill="#595959" d="M 672.966 156.372 L 672.966 150.529 L 670.544 156.372 L 670.185 156.372 L 667.779 150.529 L 667.779 156.372 L 666.888 156.372 L 666.888 149.263 L 668.154 149.263 L 670.373 154.607 L 672.576 149.263 L 673.857 149.263 L 673.857 156.372 L 672.966 156.372 Z M 678.697 156.372 L 678.697 155.779 C 678.27 156.258 677.702 156.497 676.994 156.497 C 676.473 156.497 676.04 156.336 675.697 156.013 C 675.363 155.68 675.197 155.273 675.197 154.794 C 675.197 154.294 675.363 153.888 675.697 153.575 C 676.04 153.263 676.473 153.107 676.994 153.107 C 677.733 153.107 678.301 153.341 678.697 153.81 L 678.697 152.872 C 678.697 152.529 678.572 152.263 678.322 152.075 C 678.082 151.888 677.775 151.794 677.4 151.794 C 676.796 151.794 676.27 152.029 675.822 152.497 L 675.447 151.95 C 675.999 151.378 676.686 151.091 677.509 151.091 C 678.134 151.091 678.619 151.247 678.962 151.56 C 679.316 151.862 679.494 152.289 679.494 152.841 L 679.494 156.372 L 678.697 156.372 Z M 677.275 155.919 C 677.91 155.919 678.384 155.706 678.697 155.279 L 678.697 154.31 C 678.384 153.883 677.91 153.669 677.275 153.669 C 676.9 153.669 676.592 153.779 676.353 153.997 C 676.124 154.206 676.009 154.477 676.009 154.81 C 676.009 155.133 676.124 155.398 676.353 155.607 C 676.592 155.815 676.9 155.919 677.275 155.919 Z M 682.719 156.497 C 681.854 156.497 681.167 156.227 680.656 155.685 L 681.063 155.122 C 681.229 155.32 681.464 155.492 681.766 155.638 C 682.068 155.784 682.401 155.857 682.766 155.857 C 683.162 155.857 683.458 155.773 683.656 155.607 C 683.865 155.44 683.969 155.227 683.969 154.966 C 683.969 154.737 683.854 154.56 683.625 154.435 C 683.406 154.299 682.995 154.159 682.391 154.013 C 681.87 153.909 681.469 153.742 681.188 153.513 C 680.917 153.284 680.781 152.971 680.781 152.575 C 680.781 152.148 680.953 151.794 681.297 151.513 C 681.651 151.232 682.12 151.091 682.703 151.091 C 683.474 151.091 684.109 151.341 684.609 151.841 L 684.234 152.404 C 684.078 152.216 683.865 152.06 683.594 151.935 C 683.333 151.81 683.037 151.747 682.703 151.747 C 682.349 151.747 682.068 151.825 681.859 151.982 C 681.662 152.138 681.563 152.331 681.563 152.56 C 681.563 152.768 681.677 152.935 681.906 153.06 C 682.135 153.174 682.552 153.294 683.156 153.419 C 683.677 153.544 684.073 153.732 684.344 153.982 C 684.615 154.221 684.75 154.544 684.75 154.95 C 684.75 155.419 684.563 155.794 684.188 156.075 C 683.823 156.357 683.333 156.497 682.719 156.497 Z M 689.565 156.372 L 687.705 154.06 L 686.846 154.904 L 686.846 156.372 L 686.049 156.372 L 686.049 149.263 L 686.846 149.263 L 686.846 153.966 L 689.565 151.232 L 690.565 151.232 L 688.283 153.56 L 690.58 156.372 L 689.565 156.372 Z M 693.823 156.497 C 693.041 156.497 692.406 156.247 691.916 155.747 C 691.437 155.237 691.198 154.586 691.198 153.794 C 691.198 153.034 691.437 152.393 691.916 151.872 C 692.406 151.352 693.01 151.091 693.729 151.091 C 694.468 151.091 695.067 151.352 695.526 151.872 C 695.984 152.383 696.213 153.044 696.213 153.857 L 696.213 154.06 L 692.041 154.06 C 692.073 154.581 692.26 155.008 692.604 155.341 C 692.958 155.674 693.39 155.841 693.901 155.841 C 694.526 155.841 695.052 155.622 695.479 155.185 L 695.869 155.716 C 695.338 156.237 694.656 156.497 693.823 156.497 Z M 695.416 153.466 C 695.416 152.997 695.26 152.596 694.948 152.263 C 694.635 151.93 694.229 151.763 693.729 151.763 C 693.25 151.763 692.849 151.93 692.526 152.263 C 692.213 152.596 692.052 152.997 692.041 153.466 L 695.416 153.466 Z M 701.228 156.372 L 701.228 155.607 C 701.03 155.867 700.78 156.081 700.478 156.247 C 700.176 156.414 699.848 156.497 699.494 156.497 C 698.806 156.497 698.249 156.253 697.822 155.763 C 697.405 155.273 697.197 154.622 697.197 153.81 C 697.197 152.987 697.405 152.331 697.822 151.841 C 698.249 151.341 698.806 151.091 699.494 151.091 C 699.838 151.091 700.161 151.174 700.463 151.341 C 700.765 151.497 701.02 151.716 701.228 151.997 L 701.228 149.263 L 702.025 149.263 L 702.025 156.372 L 701.228 156.372 Z M 699.681 155.779 C 700.004 155.779 700.306 155.7 700.588 155.544 C 700.869 155.388 701.082 155.2 701.228 154.982 L 701.228 152.638 C 701.082 152.409 700.869 152.216 700.588 152.06 C 700.306 151.893 700.004 151.81 699.681 151.81 C 699.181 151.81 698.78 151.992 698.478 152.357 C 698.176 152.721 698.025 153.206 698.025 153.81 C 698.025 154.393 698.176 154.867 698.478 155.232 C 698.78 155.596 699.181 155.779 699.681 155.779 Z" fill-rule="nonzero" clip-path="url(#g1fbdae4e7bb_0_92.0)"/>
    <path fill="#000000" fill-opacity="0.0" d="M 707.613 152.532 L 728.18 152.532" fill-rule="evenodd" clip-path="url(#g1fbdae4e7bb_0_92.0)"/>
    <path stroke="#cccccc" stroke-width="1.0" stroke-linejoin="round" stroke-linecap="butt" stroke-dasharray="4.0,3.0" d="M 707.613 152.532 L 728.18 152.532" fill-rule="evenodd" clip-path="url(#g1fbdae4e7bb_0_92.0)"/>
    <path fill="#000000" fill-opacity="0.0" d="M 408.917 243.22 L 365.358 243.22" fill-rule="evenodd" clip-path="url(#g1fbdae4e7bb_0_92.0)"/>
    <path stroke="#ffab40" stroke-width="3.0" stroke-linejoin="round" stroke-linecap="butt" d="M 408.917 243.22 L 383.358 243.22" fill-rule="evenodd" clip-path="url(#g1fbdae4e7bb_0_92.0)"/>
    <path fill="#ffab40" stroke="#ffab40" stroke-width="3.0" stroke-linecap="butt" d="M 383.358 238.265 L 369.744 243.22 L 383.358 248.176 L 383.358 238.265 Z" fill-rule="evenodd" clip-path="url(#g1fbdae4e7bb_0_92.0)"/>
    <path fill="#000000" fill-opacity="0.0" d="M 542.096 241.638 L 585.655 241.638" fill-rule="evenodd" clip-path="url(#g1fbdae4e7bb_0_92.0)"/>
    <path stroke="#ffab40" stroke-width="3.0" stroke-linejoin="round" stroke-linecap="butt" d="M 542.096 241.638 L 567.655 241.638" fill-rule="evenodd" clip-path="url(#g1fbdae4e7bb_0_92.0)"/>
    <path fill="#ffab40" stroke="#ffab40" stroke-width="3.0" stroke-linecap="butt" d="M 567.655 246.593 L 581.269 241.638 L 567.655 236.683 L 567.655 246.593 Z" fill-rule="evenodd" clip-path="url(#g1fbdae4e7bb_0_92.0)"/>
    <path fill="#000000" fill-opacity="0.0" d="M 357.186 212.262 L 417.092 212.262 L 417.092 236.609 L 357.186 236.609 L 357.186 212.262 Z" fill-rule="evenodd" clip-path="url(#g1fbdae4e7bb_0_92.0)"/>
    <path fill="#000000" d="M 368.873 229.236 L 368.873 228.501 C 368.331 229.095 367.618 229.392 366.732 229.392 C 366.086 229.392 365.55 229.189 365.123 228.783 C 364.696 228.376 364.482 227.871 364.482 227.267 C 364.482 226.642 364.691 226.131 365.107 225.736 C 365.534 225.34 366.076 225.142 366.732 225.142 C 367.659 225.142 368.373 225.434 368.873 226.017 L 368.873 224.861 C 368.873 224.423 368.717 224.09 368.404 223.861 C 368.102 223.621 367.717 223.501 367.248 223.501 C 366.487 223.501 365.826 223.798 365.264 224.392 L 364.795 223.704 C 365.482 222.996 366.342 222.642 367.373 222.642 C 368.165 222.642 368.779 222.835 369.217 223.22 C 369.654 223.595 369.873 224.126 369.873 224.814 L 369.873 229.236 L 368.873 229.236 Z M 367.092 228.673 C 367.883 228.673 368.477 228.408 368.873 227.876 L 368.873 226.658 C 368.477 226.126 367.883 225.861 367.092 225.861 C 366.623 225.861 366.243 225.996 365.951 226.267 C 365.659 226.527 365.514 226.866 365.514 227.283 C 365.514 227.689 365.659 228.022 365.951 228.283 C 366.243 228.543 366.623 228.673 367.092 228.673 Z M 372.866 227.486 C 373.043 227.777 373.303 228.022 373.647 228.22 C 374.001 228.408 374.381 228.501 374.787 228.501 C 375.412 228.501 375.912 228.272 376.287 227.814 C 376.673 227.355 376.866 226.756 376.866 226.017 C 376.866 225.277 376.678 224.678 376.303 224.22 C 375.928 223.762 375.423 223.533 374.787 223.533 C 374.381 223.533 374.001 223.637 373.647 223.845 C 373.303 224.043 373.043 224.283 372.866 224.564 L 372.866 227.486 Z M 371.866 229.236 L 371.866 220.345 L 372.866 220.345 L 372.866 223.767 C 373.418 223.017 374.142 222.642 375.037 222.642 C 375.892 222.642 376.579 222.954 377.1 223.579 C 377.631 224.194 377.897 225.006 377.897 226.017 C 377.897 227.048 377.631 227.871 377.1 228.486 C 376.579 229.09 375.892 229.392 375.037 229.392 C 374.579 229.392 374.162 229.288 373.787 229.079 C 373.412 228.871 373.105 228.605 372.866 228.283 L 372.866 229.236 L 371.866 229.236 Z M 379.529 229.236 L 379.529 220.345 L 380.529 220.345 L 380.529 229.236 L 379.529 229.236 Z M 386.559 229.236 L 386.559 228.501 C 386.018 229.095 385.304 229.392 384.419 229.392 C 383.773 229.392 383.236 229.189 382.809 228.783 C 382.382 228.376 382.169 227.871 382.169 227.267 C 382.169 226.642 382.377 226.131 382.794 225.736 C 383.221 225.34 383.762 225.142 384.419 225.142 C 385.346 225.142 386.059 225.434 386.559 226.017 L 386.559 224.861 C 386.559 224.423 386.403 224.09 386.09 223.861 C 385.788 223.621 385.403 223.501 384.934 223.501 C 384.174 223.501 383.512 223.798 382.95 224.392 L 382.481 223.704 C 383.169 222.996 384.028 222.642 385.059 222.642 C 385.851 222.642 386.465 222.835 386.903 223.22 C 387.34 223.595 387.559 224.126 387.559 224.814 L 387.559 229.236 L 386.559 229.236 Z M 384.778 228.673 C 385.57 228.673 386.163 228.408 386.559 227.876 L 386.559 226.658 C 386.163 226.126 385.57 225.861 384.778 225.861 C 384.309 225.861 383.929 225.996 383.637 226.267 C 383.346 226.527 383.2 226.866 383.2 227.283 C 383.2 227.689 383.346 228.022 383.637 228.283 C 383.929 228.543 384.309 228.673 384.778 228.673 Z M 391.177 229.392 C 390.229 229.392 389.755 228.892 389.755 227.892 L 389.755 223.673 L 388.693 223.673 L 388.693 222.798 L 389.755 222.798 L 389.755 221.033 L 390.755 221.033 L 390.755 222.798 L 392.052 222.798 L 392.052 223.673 L 390.755 223.673 L 390.755 227.673 C 390.755 227.913 390.807 228.111 390.911 228.267 C 391.015 228.423 391.182 228.501 391.411 228.501 C 391.682 228.501 391.906 228.413 392.083 228.236 L 392.38 228.986 C 392.099 229.256 391.698 229.392 391.177 229.392 Z M 393.97 221.876 C 393.783 221.876 393.621 221.814 393.486 221.689 C 393.361 221.553 393.298 221.392 393.298 221.204 C 393.298 221.027 393.361 220.871 393.486 220.736 C 393.621 220.6 393.783 220.533 393.97 220.533 C 394.147 220.533 394.304 220.6 394.439 220.736 C 394.575 220.871 394.642 221.027 394.642 221.204 C 394.642 221.392 394.575 221.553 394.439 221.689 C 394.304 221.814 394.147 221.876 393.97 221.876 Z M 393.47 229.236 L 393.47 222.798 L 394.47 222.798 L 394.47 229.236 L 393.47 229.236 Z M 399.282 229.392 C 398.344 229.392 397.579 229.074 396.985 228.439 C 396.391 227.803 396.094 226.996 396.094 226.017 C 396.094 225.017 396.391 224.204 396.985 223.579 C 397.579 222.954 398.344 222.642 399.282 222.642 C 400.219 222.642 400.985 222.954 401.579 223.579 C 402.172 224.204 402.469 225.017 402.469 226.017 C 402.469 226.996 402.172 227.803 401.579 228.439 C 400.985 229.074 400.219 229.392 399.282 229.392 Z M 399.282 228.501 C 399.907 228.501 400.417 228.272 400.813 227.814 C 401.209 227.345 401.407 226.746 401.407 226.017 C 401.407 225.288 401.209 224.694 400.813 224.236 C 400.417 223.767 399.907 223.533 399.282 223.533 C 398.657 223.533 398.141 223.767 397.735 224.236 C 397.339 224.694 397.141 225.288 397.141 226.017 C 397.141 226.746 397.339 227.345 397.735 227.814 C 398.131 228.272 398.646 228.501 399.282 228.501 Z M 408.437 229.236 L 408.437 225.017 C 408.437 224.454 408.306 224.069 408.046 223.861 C 407.786 223.642 407.437 223.533 406.999 223.533 C 406.624 223.533 406.254 223.631 405.89 223.829 C 405.536 224.027 405.27 224.262 405.093 224.533 L 405.093 229.236 L 404.093 229.236 L 404.093 222.798 L 405.093 222.798 L 405.093 223.736 C 405.364 223.413 405.702 223.152 406.108 222.954 C 406.515 222.746 406.942 222.642 407.39 222.642 C 408.754 222.642 409.437 223.335 409.437 224.72 L 409.437 229.236 L 408.437 229.236 Z" fill-rule="nonzero" clip-path="url(#g1fbdae4e7bb_0_92.0)"/>
    <path fill="#000000" fill-opacity="0.0" d="M 533.924 204.262 L 593.829 204.262 L 593.829 229.018 L 533.924 229.018 L 533.924 204.262 Z" fill-rule="evenodd" clip-path="url(#g1fbdae4e7bb_0_92.0)"/>
    <path fill="#000000" d="M 561.737 213.44 L 561.737 209.222 C 561.737 208.659 561.606 208.274 561.346 208.065 C 561.086 207.847 560.737 207.737 560.299 207.737 C 559.924 207.737 559.554 207.836 559.19 208.034 C 558.836 208.232 558.57 208.466 558.393 208.737 L 558.393 213.44 L 557.393 213.44 L 557.393 207.003 L 558.393 207.003 L 558.393 207.94 C 558.664 207.617 559.002 207.357 559.409 207.159 C 559.815 206.951 560.242 206.847 560.69 206.847 C 562.054 206.847 562.737 207.539 562.737 208.925 L 562.737 213.44 L 561.737 213.44 Z M 567.549 213.597 C 566.612 213.597 565.846 213.279 565.252 212.643 C 564.659 212.008 564.362 211.201 564.362 210.222 C 564.362 209.222 564.659 208.409 565.252 207.784 C 565.846 207.159 566.612 206.847 567.549 206.847 C 568.487 206.847 569.252 207.159 569.846 207.784 C 570.44 208.409 570.737 209.222 570.737 210.222 C 570.737 211.201 570.44 212.008 569.846 212.643 C 569.252 213.279 568.487 213.597 567.549 213.597 Z M 567.549 212.706 C 568.174 212.706 568.685 212.477 569.08 212.018 C 569.476 211.55 569.674 210.951 569.674 210.222 C 569.674 209.492 569.476 208.899 569.08 208.44 C 568.685 207.972 568.174 207.737 567.549 207.737 C 566.924 207.737 566.409 207.972 566.002 208.44 C 565.606 208.899 565.409 209.492 565.409 210.222 C 565.409 210.951 565.606 211.55 566.002 212.018 C 566.398 212.477 566.914 212.706 567.549 212.706 Z" fill-rule="nonzero" clip-path="url(#g1fbdae4e7bb_0_92.0)"/>
    <path fill="#000000" d="M 545.61 229.44 L 545.61 228.706 C 545.069 229.3 544.355 229.597 543.47 229.597 C 542.824 229.597 542.287 229.393 541.86 228.987 C 541.433 228.581 541.22 228.076 541.22 227.472 C 541.22 226.847 541.428 226.336 541.845 225.94 C 542.272 225.545 542.814 225.347 543.47 225.347 C 544.397 225.347 545.11 225.638 545.61 226.222 L 545.61 225.065 C 545.61 224.628 545.454 224.295 545.142 224.065 C 544.84 223.826 544.454 223.706 543.985 223.706 C 543.225 223.706 542.564 224.003 542.001 224.597 L 541.532 223.909 C 542.22 223.201 543.079 222.847 544.11 222.847 C 544.902 222.847 545.517 223.039 545.954 223.425 C 546.392 223.8 546.61 224.331 546.61 225.018 L 546.61 229.44 L 545.61 229.44 Z M 543.829 228.878 C 544.621 228.878 545.215 228.612 545.61 228.081 L 545.61 226.862 C 545.215 226.331 544.621 226.065 543.829 226.065 C 543.36 226.065 542.98 226.201 542.689 226.472 C 542.397 226.732 542.251 227.071 542.251 227.487 C 542.251 227.893 542.397 228.227 542.689 228.487 C 542.98 228.748 543.36 228.878 543.829 228.878 Z M 549.603 227.69 C 549.78 227.982 550.041 228.227 550.384 228.425 C 550.738 228.612 551.119 228.706 551.525 228.706 C 552.15 228.706 552.65 228.477 553.025 228.018 C 553.41 227.56 553.603 226.961 553.603 226.222 C 553.603 225.482 553.416 224.883 553.041 224.425 C 552.666 223.966 552.16 223.737 551.525 223.737 C 551.119 223.737 550.738 223.841 550.384 224.05 C 550.041 224.248 549.78 224.487 549.603 224.768 L 549.603 227.69 Z M 548.603 229.44 L 548.603 220.55 L 549.603 220.55 L 549.603 223.972 C 550.155 223.222 550.879 222.847 551.775 222.847 C 552.629 222.847 553.317 223.159 553.837 223.784 C 554.369 224.399 554.634 225.211 554.634 226.222 C 554.634 227.253 554.369 228.076 553.837 228.69 C 553.317 229.295 552.629 229.597 551.775 229.597 C 551.317 229.597 550.9 229.492 550.525 229.284 C 550.15 229.076 549.843 228.81 549.603 228.487 L 549.603 229.44 L 548.603 229.44 Z M 556.267 229.44 L 556.267 220.55 L 557.267 220.55 L 557.267 229.44 L 556.267 229.44 Z M 563.297 229.44 L 563.297 228.706 C 562.755 229.3 562.042 229.597 561.156 229.597 C 560.51 229.597 559.974 229.393 559.547 228.987 C 559.12 228.581 558.906 228.076 558.906 227.472 C 558.906 226.847 559.114 226.336 559.531 225.94 C 559.958 225.545 560.5 225.347 561.156 225.347 C 562.083 225.347 562.797 225.638 563.297 226.222 L 563.297 225.065 C 563.297 224.628 563.14 224.295 562.828 224.065 C 562.526 223.826 562.14 223.706 561.672 223.706 C 560.911 223.706 560.25 224.003 559.687 224.597 L 559.219 223.909 C 559.906 223.201 560.765 222.847 561.797 222.847 C 562.588 222.847 563.203 223.039 563.64 223.425 C 564.078 223.8 564.297 224.331 564.297 225.018 L 564.297 229.44 L 563.297 229.44 Z M 561.515 228.878 C 562.307 228.878 562.901 228.612 563.297 228.081 L 563.297 226.862 C 562.901 226.331 562.307 226.065 561.515 226.065 C 561.047 226.065 560.667 226.201 560.375 226.472 C 560.083 226.732 559.937 227.071 559.937 227.487 C 559.937 227.893 560.083 228.227 560.375 228.487 C 560.667 228.748 561.047 228.878 561.515 228.878 Z M 567.914 229.597 C 566.966 229.597 566.493 229.097 566.493 228.097 L 566.493 223.878 L 565.43 223.878 L 565.43 223.003 L 566.493 223.003 L 566.493 221.237 L 567.493 221.237 L 567.493 223.003 L 568.789 223.003 L 568.789 223.878 L 567.493 223.878 L 567.493 227.878 C 567.493 228.117 567.545 228.315 567.649 228.472 C 567.753 228.628 567.92 228.706 568.149 228.706 C 568.42 228.706 568.644 228.617 568.821 228.44 L 569.118 229.19 C 568.836 229.461 568.435 229.597 567.914 229.597 Z M 570.708 222.081 C 570.52 222.081 570.359 222.018 570.223 221.893 C 570.098 221.758 570.036 221.597 570.036 221.409 C 570.036 221.232 570.098 221.076 570.223 220.94 C 570.359 220.805 570.52 220.737 570.708 220.737 C 570.885 220.737 571.041 220.805 571.177 220.94 C 571.312 221.076 571.38 221.232 571.38 221.409 C 571.38 221.597 571.312 221.758 571.177 221.893 C 571.041 222.018 570.885 222.081 570.708 222.081 Z M 570.208 229.44 L 570.208 223.003 L 571.208 223.003 L 571.208 229.44 L 570.208 229.44 Z M 576.019 229.597 C 575.082 229.597 574.316 229.279 573.722 228.643 C 573.129 228.008 572.832 227.201 572.832 226.222 C 572.832 225.222 573.129 224.409 573.722 223.784 C 574.316 223.159 575.082 222.847 576.019 222.847 C 576.957 222.847 577.722 223.159 578.316 223.784 C 578.91 224.409 579.207 225.222 579.207 226.222 C 579.207 227.201 578.91 228.008 578.316 228.643 C 577.722 229.279 576.957 229.597 576.019 229.597 Z M 576.019 228.706 C 576.644 228.706 577.155 228.477 577.55 228.018 C 577.946 227.55 578.144 226.951 578.144 226.222 C 578.144 225.492 577.946 224.899 577.55 224.44 C 577.155 223.972 576.644 223.737 576.019 223.737 C 575.394 223.737 574.879 223.972 574.472 224.44 C 574.076 224.899 573.879 225.492 573.879 226.222 C 573.879 226.951 574.076 227.55 574.472 228.018 C 574.868 228.477 575.384 228.706 576.019 228.706 Z M 585.174 229.44 L 585.174 225.222 C 585.174 224.659 585.044 224.274 584.783 224.065 C 584.523 223.847 584.174 223.737 583.737 223.737 C 583.362 223.737 582.992 223.836 582.627 224.034 C 582.273 224.232 582.007 224.466 581.83 224.737 L 581.83 229.44 L 580.83 229.44 L 580.83 223.003 L 581.83 223.003 L 581.83 223.94 C 582.101 223.617 582.44 223.357 582.846 223.159 C 583.252 222.951 583.679 222.847 584.127 222.847 C 585.492 222.847 586.174 223.539 586.174 224.925 L 586.174 229.44 L 585.174 229.44 Z" fill-rule="nonzero" clip-path="url(#g1fbdae4e7bb_0_92.0)"/>
    <path fill="#000000" fill-opacity="0.0" d="M 413.323 270 L 473.228 270 L 473.228 286.441 L 413.323 286.441 L 413.323 270 Z" fill-rule="evenodd" clip-path="url(#g1fbdae4e7bb_0_92.0)"/>
    <path fill="#595959" d="M 428.605 282.061 L 428.605 274.951 L 429.402 274.951 L 429.402 282.061 L 428.605 282.061 Z M 434.221 282.061 L 434.221 281.467 C 433.794 281.946 433.226 282.186 432.518 282.186 C 431.997 282.186 431.565 282.024 431.221 281.701 C 430.888 281.368 430.721 280.962 430.721 280.482 C 430.721 279.982 430.888 279.576 431.221 279.264 C 431.565 278.951 431.997 278.795 432.518 278.795 C 433.258 278.795 433.825 279.029 434.221 279.498 L 434.221 278.561 C 434.221 278.217 434.096 277.951 433.846 277.764 C 433.607 277.576 433.299 277.482 432.924 277.482 C 432.32 277.482 431.794 277.717 431.346 278.186 L 430.971 277.639 C 431.523 277.066 432.211 276.779 433.034 276.779 C 433.659 276.779 434.143 276.936 434.487 277.248 C 434.841 277.55 435.018 277.977 435.018 278.529 L 435.018 282.061 L 434.221 282.061 Z M 432.799 281.607 C 433.435 281.607 433.909 281.394 434.221 280.967 L 434.221 279.998 C 433.909 279.571 433.435 279.357 432.799 279.357 C 432.424 279.357 432.117 279.467 431.877 279.686 C 431.648 279.894 431.534 280.165 431.534 280.498 C 431.534 280.821 431.648 281.087 431.877 281.295 C 432.117 281.503 432.424 281.607 432.799 281.607 Z M 436.462 283.357 C 436.577 283.409 436.723 283.436 436.9 283.436 C 437.077 283.436 437.223 283.399 437.337 283.326 C 437.462 283.253 437.571 283.107 437.665 282.889 L 438.009 282.107 L 435.853 276.92 L 436.712 276.92 L 438.431 281.139 L 440.134 276.92 L 441.009 276.92 L 438.431 283.107 C 438.15 283.784 437.644 284.133 436.915 284.154 C 436.707 284.154 436.514 284.128 436.337 284.076 L 436.462 283.357 Z M 444.168 282.186 C 443.387 282.186 442.751 281.936 442.262 281.436 C 441.783 280.925 441.543 280.274 441.543 279.482 C 441.543 278.722 441.783 278.081 442.262 277.561 C 442.751 277.04 443.356 276.779 444.074 276.779 C 444.814 276.779 445.413 277.04 445.871 277.561 C 446.33 278.071 446.559 278.732 446.559 279.545 L 446.559 279.748 L 442.387 279.748 C 442.418 280.269 442.606 280.696 442.949 281.029 C 443.304 281.363 443.736 281.529 444.246 281.529 C 444.871 281.529 445.397 281.311 445.824 280.873 L 446.215 281.404 C 445.684 281.925 445.001 282.186 444.168 282.186 Z M 445.762 279.154 C 445.762 278.686 445.606 278.284 445.293 277.951 C 444.981 277.618 444.574 277.451 444.074 277.451 C 443.595 277.451 443.194 277.618 442.871 277.951 C 442.559 278.284 442.397 278.686 442.387 279.154 L 445.762 279.154 Z M 447.839 282.061 L 447.839 276.92 L 448.636 276.92 L 448.636 277.748 C 449.116 277.123 449.688 276.811 450.355 276.811 L 450.355 277.623 L 450.043 277.592 C 449.793 277.592 449.522 277.68 449.23 277.857 C 448.949 278.034 448.751 278.222 448.636 278.42 L 448.636 282.061 L 447.839 282.061 Z M 454.137 282.061 L 454.137 274.951 L 455.027 274.951 L 455.027 281.279 L 458.324 281.279 L 458.324 282.061 L 454.137 282.061 Z" fill-rule="nonzero" clip-path="url(#g1fbdae4e7bb_0_92.0)"/>
    <path fill="#000000" fill-opacity="0.0" d="M 447.706 179.063 L 507.612 179.063 L 507.612 195.504 L 447.706 195.504 L 447.706 179.063 Z" fill-rule="evenodd" clip-path="url(#g1fbdae4e7bb_0_92.0)"/>
    <path fill="#595959" d="M 467.08 184.723 L 467.08 177.614 L 467.877 177.614 L 467.877 184.723 L 467.08 184.723 Z M 472.696 184.723 L 472.696 184.13 C 472.269 184.609 471.702 184.848 470.993 184.848 C 470.472 184.848 470.04 184.687 469.696 184.364 C 469.363 184.031 469.196 183.625 469.196 183.145 C 469.196 182.645 469.363 182.239 469.696 181.927 C 470.04 181.614 470.472 181.458 470.993 181.458 C 471.733 181.458 472.301 181.692 472.696 182.161 L 472.696 181.223 C 472.696 180.88 472.571 180.614 472.321 180.427 C 472.082 180.239 471.775 180.145 471.4 180.145 C 470.795 180.145 470.269 180.38 469.821 180.848 L 469.446 180.302 C 469.999 179.729 470.686 179.442 471.509 179.442 C 472.134 179.442 472.618 179.598 472.962 179.911 C 473.316 180.213 473.493 180.64 473.493 181.192 L 473.493 184.723 L 472.696 184.723 Z M 471.275 184.27 C 471.91 184.27 472.384 184.057 472.696 183.63 L 472.696 182.661 C 472.384 182.234 471.91 182.02 471.275 182.02 C 470.9 182.02 470.592 182.13 470.353 182.348 C 470.124 182.557 470.009 182.828 470.009 183.161 C 470.009 183.484 470.124 183.75 470.353 183.958 C 470.592 184.166 470.9 184.27 471.275 184.27 Z M 474.937 186.02 C 475.052 186.072 475.198 186.098 475.375 186.098 C 475.552 186.098 475.698 186.062 475.812 185.989 C 475.937 185.916 476.047 185.77 476.14 185.552 L 476.484 184.77 L 474.328 179.583 L 475.187 179.583 L 476.906 183.802 L 478.609 179.583 L 479.484 179.583 L 476.906 185.77 C 476.625 186.447 476.12 186.796 475.39 186.817 C 475.182 186.817 474.989 186.791 474.812 186.739 L 474.937 186.02 Z M 482.643 184.848 C 481.862 184.848 481.227 184.598 480.737 184.098 C 480.258 183.588 480.018 182.937 480.018 182.145 C 480.018 181.385 480.258 180.744 480.737 180.223 C 481.227 179.703 481.831 179.442 482.55 179.442 C 483.289 179.442 483.888 179.703 484.346 180.223 C 484.805 180.734 485.034 181.395 485.034 182.208 L 485.034 182.411 L 480.862 182.411 C 480.893 182.932 481.081 183.359 481.425 183.692 C 481.779 184.026 482.211 184.192 482.721 184.192 C 483.346 184.192 483.873 183.973 484.3 183.536 L 484.69 184.067 C 484.159 184.588 483.477 184.848 482.643 184.848 Z M 484.237 181.817 C 484.237 181.348 484.081 180.947 483.768 180.614 C 483.456 180.281 483.05 180.114 482.55 180.114 C 482.07 180.114 481.669 180.281 481.346 180.614 C 481.034 180.947 480.873 181.348 480.862 181.817 L 484.237 181.817 Z M 486.315 184.723 L 486.315 179.583 L 487.112 179.583 L 487.112 180.411 C 487.591 179.786 488.164 179.473 488.83 179.473 L 488.83 180.286 L 488.518 180.255 C 488.268 180.255 487.997 180.343 487.705 180.52 C 487.424 180.697 487.226 180.885 487.112 181.083 L 487.112 184.723 L 486.315 184.723 Z" fill-rule="nonzero" clip-path="url(#g1fbdae4e7bb_0_92.0)"/>
    <path fill="#595959" d="M 471.305 197.523 L 471.305 190.414 L 472.195 190.414 L 472.195 196.742 L 475.492 196.742 L 475.492 197.523 L 471.305 197.523 Z M 478.88 194.211 L 478.88 196.477 L 478.271 196.477 L 478.271 194.211 L 476.224 194.211 L 476.224 193.648 L 478.271 193.648 L 478.271 191.445 L 478.88 191.445 L 478.88 193.648 L 480.927 193.648 L 480.927 194.211 L 478.88 194.211 Z M 483.119 197.523 L 483.119 191.586 L 481.979 192.789 L 481.447 192.242 L 483.229 190.414 L 484.01 190.414 L 484.01 197.523 L 483.119 197.523 Z" fill-rule="nonzero" clip-path="url(#g1fbdae4e7bb_0_92.0)"/>
    <path fill="#000000" fill-opacity="0.0" d="M 641.776 295.714 C 641.776 304.228 648.678 311.13 657.192 311.13 C 661.281 311.13 665.202 309.506 668.093 306.615 C 670.985 303.724 672.609 299.803 672.609 295.714 C 672.609 287.2 665.707 280.298 657.192 280.298 C 648.678 280.298 641.776 287.2 641.776 295.714 Z" fill-rule="evenodd" clip-path="url(#g1fbdae4e7bb_0_92.0)"/>
    <path stroke="#ffab40" stroke-width="2.0" stroke-linejoin="round" stroke-linecap="butt" d="M 641.776 295.714 C 641.776 304.228 648.678 311.13 657.192 311.13 C 661.281 311.13 665.202 309.506 668.093 306.615 C 670.985 303.724 672.609 299.803 672.609 295.714 C 672.609 287.2 665.707 280.298 657.192 280.298 C 648.678 280.298 641.776 287.2 641.776 295.714 Z" fill-rule="evenodd" clip-path="url(#g1fbdae4e7bb_0_92.0)"/>
    <path fill="#000000" fill-opacity="0.0" d="M 710.037 295.714 C 710.037 304.228 716.939 311.13 725.453 311.13 C 729.542 311.13 733.463 309.506 736.354 306.615 C 739.245 303.724 740.869 299.803 740.869 295.714 C 740.869 287.2 733.967 280.298 725.453 280.298 C 716.939 280.298 710.037 287.2 710.037 295.714 Z" fill-rule="evenodd" clip-path="url(#g1fbdae4e7bb_0_92.0)"/>
    <path stroke="#ffab40" stroke-width="2.0" stroke-linejoin="round" stroke-linecap="butt" d="M 710.037 295.714 C 710.037 304.228 716.939 311.13 725.453 311.13 C 729.542 311.13 733.463 309.506 736.354 306.615 C 739.245 303.724 740.869 299.803 740.869 295.714 C 740.869 287.2 733.967 280.298 725.453 280.298 C 716.939 280.298 710.037 287.2 710.037 295.714 Z" fill-rule="evenodd" clip-path="url(#g1fbdae4e7bb_0_92.0)"/>
    <path fill="#000000" fill-opacity="0.0" d="M 573.516 295.714 C 573.516 304.228 580.418 311.13 588.932 311.13 C 593.021 311.13 596.942 309.506 599.833 306.615 C 602.724 303.724 604.348 299.803 604.348 295.714 C 604.348 287.2 597.446 280.298 588.932 280.298 C 580.418 280.298 573.516 287.2 573.516 295.714 Z" fill-rule="evenodd" clip-path="url(#g1fbdae4e7bb_0_92.0)"/>
    <path stroke="#ffab40" stroke-width="2.0" stroke-linejoin="round" stroke-linecap="butt" d="M 573.516 295.714 C 573.516 304.228 580.418 311.13 588.932 311.13 C 593.021 311.13 596.942 309.506 599.833 306.615 C 602.724 303.724 604.348 299.803 604.348 295.714 C 604.348 287.2 597.446 280.298 588.932 280.298 C 580.418 280.298 573.516 287.2 573.516 295.714 Z" fill-rule="evenodd" clip-path="url(#g1fbdae4e7bb_0_92.0)"/>
    <path fill="#000000" fill-opacity="0.0" d="M 588.932 280.298 L 620.937 204.467" fill-rule="evenodd" clip-path="url(#g1fbdae4e7bb_0_92.0)"/>
    <path stroke="#b7b7b7" stroke-width="2.0" stroke-linejoin="round" stroke-linecap="butt" d="M 588.932 280.298 L 620.937 204.467" fill-rule="evenodd" clip-path="url(#g1fbdae4e7bb_0_92.0)"/>
    <path fill="#000000" fill-opacity="0.0" d="M 725.453 280.298 L 693.448 204.467" fill-rule="evenodd" clip-path="url(#g1fbdae4e7bb_0_92.0)"/>
    <path stroke="#b7b7b7" stroke-width="1.0" stroke-linejoin="round" stroke-linecap="butt" stroke-dasharray="4.0,3.0" d="M 725.453 280.298 L 693.448 204.467" fill-rule="evenodd" clip-path="url(#g1fbdae4e7bb_0_92.0)"/>
    <path fill="#000000" fill-opacity="0.0" fill-rule="evenodd" clip-path="url(#g1fbdae4e7bb_0_92.0)"/>
    <path stroke="#000000" stroke-width="1.0" stroke-linejoin="round" stroke-linecap="butt" fill-rule="evenodd" clip-path="url(#g1fbdae4e7bb_0_92.0)"/>
    <path fill="#000000" fill-opacity="0.0" fill-rule="evenodd" clip-path="url(#g1fbdae4e7bb_0_92.0)"/>
    <path stroke="#000000" stroke-width="1.0" stroke-linejoin="round" stroke-linecap="butt" fill-rule="evenodd" clip-path="url(#g1fbdae4e7bb_0_92.0)"/>
    <path fill="#000000" fill-opacity="0.0" d="M 657.193 280.298 L 620.933 204.467" fill-rule="evenodd" clip-path="url(#g1fbdae4e7bb_0_92.0)"/>
    <path stroke="#b7b7b7" stroke-width="1.0" stroke-linejoin="round" stroke-linecap="butt" stroke-dasharray="4.0,3.0" d="M 657.193 280.298 L 620.933 204.467" fill-rule="evenodd" clip-path="url(#g1fbdae4e7bb_0_92.0)"/>
    <path fill="#000000" fill-opacity="0.0" d="M 657.193 280.298 L 693.452 204.467" fill-rule="evenodd" clip-path="url(#g1fbdae4e7bb_0_92.0)"/>
    <path stroke="#ffab40" stroke-width="2.0" stroke-linejoin="round" stroke-linecap="butt" d="M 657.193 280.298 L 693.452 204.467" fill-rule="evenodd" clip-path="url(#g1fbdae4e7bb_0_92.0)"/>
    <path fill="#000000" fill-opacity="0.0" d="M 588.932 280.298 L 693.457 204.467" fill-rule="evenodd" clip-path="url(#g1fbdae4e7bb_0_92.0)"/>
    <path stroke="#b7b7b7" stroke-width="1.0" stroke-linejoin="round" stroke-linecap="butt" stroke-dasharray="4.0,3.0" d="M 588.932 280.298 L 693.457 204.467" fill-rule="evenodd" clip-path="url(#g1fbdae4e7bb_0_92.0)"/>
    <path fill="#000000" fill-opacity="0.0" d="M 725.453 280.298 L 620.928 204.467" fill-rule="evenodd" clip-path="url(#g1fbdae4e7bb_0_92.0)"/>
    <path stroke="#b7b7b7" stroke-width="1.0" stroke-linejoin="round" stroke-linecap="butt" stroke-dasharray="4.0,3.0" d="M 725.453 280.298 L 620.928 204.467" fill-rule="evenodd" clip-path="url(#g1fbdae4e7bb_0_92.0)"/>
    <path fill="#000000" fill-opacity="0.0" d="M 678.037 189.061 C 678.037 197.575 684.939 204.477 693.453 204.477 C 697.542 204.477 701.463 202.853 704.354 199.962 C 707.245 197.071 708.869 193.149 708.869 189.061 C 708.869 180.547 701.967 173.645 693.453 173.645 C 684.939 173.645 678.037 180.547 678.037 189.061 Z" fill-rule="evenodd" clip-path="url(#g1fbdae4e7bb_0_92.0)"/>
    <path stroke="#ffab40" stroke-width="2.0" stroke-linejoin="round" stroke-linecap="butt" d="M 678.037 189.061 C 678.037 197.575 684.939 204.477 693.453 204.477 C 697.542 204.477 701.463 202.853 704.354 199.962 C 707.245 197.071 708.869 193.149 708.869 189.061 C 708.869 180.547 701.967 173.645 693.453 173.645 C 684.939 173.645 678.037 180.547 678.037 189.061 Z" fill-rule="evenodd" clip-path="url(#g1fbdae4e7bb_0_92.0)"/>
    <path fill="#000000" fill-opacity="0.0" d="M 605.516 189.061 C 605.516 197.575 612.418 204.477 620.932 204.477 C 625.021 204.477 628.942 202.853 631.833 199.962 C 634.724 197.071 636.348 193.149 636.348 189.061 C 636.348 180.547 629.446 173.645 620.932 173.645 C 612.418 173.645 605.516 180.547 605.516 189.061 Z" fill-rule="evenodd" clip-path="url(#g1fbdae4e7bb_0_92.0)"/>
    <path stroke="#ffab40" stroke-width="2.0" stroke-linejoin="round" stroke-linecap="butt" d="M 605.516 189.061 C 605.516 197.575 612.418 204.477 620.932 204.477 C 625.021 204.477 628.942 202.853 631.833 199.962 C 634.724 197.071 636.348 193.149 636.348 189.061 C 636.348 180.547 629.446 173.645 620.932 173.645 C 612.418 173.645 605.516 180.547 605.516 189.061 Z" fill-rule="evenodd" clip-path="url(#g1fbdae4e7bb_0_92.0)"/>
  </g>
</svg>
