<?xml version="1.0" encoding="utf-8"?>
<svg version="1.1" width="600" height="300" viewBox="214.458 144.312 526.411 230.146" fill="none" stroke="none" stroke-linecap="square" stroke-miterlimit="10" xmlns="http://www.w3.org/2000/svg">
  <clipPath id="g1faec474be9_0_363.0">
    <path d="M 0 0 L 960 0 L 960 540 L 0 540 L 0 0 Z" clip-rule="nonzero"/>
  </clipPath>
  <g>
    <rect x="0" y="0" width="1000%" height="1000%" fill="white" preserveAspectRatio="xMinYMin meet"/>
    <path fill="#ffffff" d="M 333.449 327.875 L 333.449 351.403 L 309.102 351.403 L 309.102 327.875 L 333.449 327.875 Z" fill-rule="evenodd" clip-path="url(#g1faec474be9_0_363.0)"/>
    <path stroke="#d9d9d9" stroke-width="1.0" stroke-linejoin="round" stroke-linecap="butt" stroke-dasharray="4.0,3.0" d="M 333.449 327.875 L 333.449 351.403 L 309.102 351.403 L 309.102 327.875 L 333.449 327.875 Z" fill-rule="evenodd" clip-path="url(#g1faec474be9_0_363.0)"/>
    <path fill="#ffab40" d="M 333.449 350.93 L 333.449 374.458 L 309.102 374.458 L 309.102 350.93 L 333.449 350.93 Z" fill-rule="evenodd" clip-path="url(#g1faec474be9_0_363.0)"/>
    <path stroke="#ffffff" stroke-width="1.0" stroke-linejoin="round" stroke-linecap="butt" d="M 333.449 350.93 L 333.449 374.458 L 309.102 374.458 L 309.102 350.93 L 333.449 350.93 Z" fill-rule="evenodd" clip-path="url(#g1faec474be9_0_363.0)"/>
    <path fill="#ffffff" d="M 309.102 327.875 L 309.102 351.403 L 284.756 351.403 L 284.756 327.875 L 309.102 327.875 Z" fill-rule="evenodd" clip-path="url(#g1faec474be9_0_363.0)"/>
    <path stroke="#d9d9d9" stroke-width="1.0" stroke-linejoin="round" stroke-linecap="butt" stroke-dasharray="4.0,3.0" d="M 309.102 327.875 L 309.102 351.403 L 284.756 351.403 L 284.756 327.875 L 309.102 327.875 Z" fill-rule="evenodd" clip-path="url(#g1faec474be9_0_363.0)"/>
    <path fill="#ffab40" d="M 309.102 350.93 L 309.102 374.458 L 284.756 374.458 L 284.756 350.93 L 309.102 350.93 Z" fill-rule="evenodd" clip-path="url(#g1faec474be9_0_363.0)"/>
    <path stroke="#ffffff" stroke-width="1.0" stroke-linejoin="round" stroke-linecap="butt" d="M 309.102 350.93 L 309.102 374.458 L 284.756 374.458 L 284.756 350.93 L 309.102 350.93 Z" fill-rule="evenodd" clip-path="url(#g1faec474be9_0_363.0)"/>
    <path fill="#ffab40" d="M 284.756 350.93 L 284.756 374.458 L 260.409 374.458 L 260.409 350.93 L 284.756 350.93 Z" fill-rule="evenodd" clip-path="url(#g1faec474be9_0_363.0)"/>
    <path stroke="#ffffff" stroke-width="1.0" stroke-linejoin="round" stroke-linecap="butt" d="M 284.756 350.93 L 284.756 374.458 L 260.409 374.458 L 260.409 350.93 L 284.756 350.93 Z" fill-rule="evenodd" clip-path="url(#g1faec474be9_0_363.0)"/>
    <path fill="#ffab40" d="M 284.756 327.875 L 284.756 351.403 L 260.409 351.403 L 260.409 327.875 L 284.756 327.875 Z" fill-rule="evenodd" clip-path="url(#g1faec474be9_0_363.0)"/>
    <path stroke="#ffffff" stroke-width="1.0" stroke-linejoin="round" stroke-linecap="butt" d="M 284.756 327.875 L 284.756 351.403 L 260.409 351.403 L 260.409 327.875 L 284.756 327.875 Z" fill-rule="evenodd" clip-path="url(#g1faec474be9_0_363.0)"/>
    <path fill="#000000" fill-opacity="0.0" d="M 462.243 295.713 C 462.243 304.227 469.146 311.129 477.66 311.129 C 481.748 311.129 485.67 309.505 488.561 306.614 C 491.452 303.723 493.076 299.802 493.076 295.713 C 493.076 287.199 486.174 280.297 477.66 280.297 C 469.146 280.297 462.243 287.199 462.243 295.713 Z" fill-rule="evenodd" clip-path="url(#g1faec474be9_0_363.0)"/>
    <path stroke="#ffab40" stroke-width="2.0" stroke-linejoin="round" stroke-linecap="butt" d="M 462.243 295.713 C 462.243 304.227 469.146 311.129 477.66 311.129 C 481.748 311.129 485.67 309.505 488.561 306.614 C 491.452 303.723 493.076 299.802 493.076 295.713 C 493.076 287.199 486.174 280.297 477.66 280.297 C 469.146 280.297 462.243 287.199 462.243 295.713 Z" fill-rule="evenodd" clip-path="url(#g1faec474be9_0_363.0)"/>
    <path fill="#000000" fill-opacity="0.0" d="M 530.504 295.713 C 530.504 304.227 537.406 311.129 545.92 311.129 C 550.009 311.129 553.93 309.505 556.821 306.614 C 559.712 303.723 561.336 299.802 561.336 295.713 C 561.336 287.199 554.434 280.297 545.92 280.297 C 537.406 280.297 530.504 287.199 530.504 295.713 Z" fill-rule="evenodd" clip-path="url(#g1faec474be9_0_363.0)"/>
    <path stroke="#ffab40" stroke-width="2.0" stroke-linejoin="round" stroke-linecap="butt" d="M 530.504 295.713 C 530.504 304.227 537.406 311.129 545.92 311.129 C 550.009 311.129 553.93 309.505 556.821 306.614 C 559.712 303.723 561.336 299.802 561.336 295.713 C 561.336 287.199 554.434 280.297 545.92 280.297 C 537.406 280.297 530.504 287.199 530.504 295.713 Z" fill-rule="evenodd" clip-path="url(#g1faec474be9_0_363.0)"/>
    <path fill="#000000" fill-opacity="0.0" d="M 393.983 295.713 C 393.983 304.227 400.885 311.129 409.399 311.129 C 413.488 311.129 417.409 309.505 420.3 306.614 C 423.191 303.723 424.816 299.802 424.816 295.713 C 424.816 287.199 417.913 280.297 409.399 280.297 C 400.885 280.297 393.983 287.199 393.983 295.713 Z" fill-rule="evenodd" clip-path="url(#g1faec474be9_0_363.0)"/>
    <path stroke="#ffab40" stroke-width="2.0" stroke-linejoin="round" stroke-linecap="butt" d="M 393.983 295.713 C 393.983 304.227 400.885 311.129 409.399 311.129 C 413.488 311.129 417.409 309.505 420.3 306.614 C 423.191 303.723 424.816 299.802 424.816 295.713 C 424.816 287.199 417.913 280.297 409.399 280.297 C 400.885 280.297 393.983 287.199 393.983 295.713 Z" fill-rule="evenodd" clip-path="url(#g1faec474be9_0_363.0)"/>
    <path fill="#000000" fill-opacity="0.0" d="M 409.399 280.297 L 441.405 204.465" fill-rule="evenodd" clip-path="url(#g1faec474be9_0_363.0)"/>
    <path stroke="#ffab40" stroke-width="2.0" stroke-linejoin="round" stroke-linecap="butt" d="M 409.399 280.297 L 441.405 204.465" fill-rule="evenodd" clip-path="url(#g1faec474be9_0_363.0)"/>
    <path fill="#000000" fill-opacity="0.0" d="M 545.92 280.297 L 513.915 204.465" fill-rule="evenodd" clip-path="url(#g1faec474be9_0_363.0)"/>
    <path stroke="#ffab40" stroke-width="2.0" stroke-linejoin="round" stroke-linecap="butt" d="M 545.92 280.297 L 513.915 204.465" fill-rule="evenodd" clip-path="url(#g1faec474be9_0_363.0)"/>
    <path fill="#000000" fill-opacity="0.0" fill-rule="evenodd" clip-path="url(#g1faec474be9_0_363.0)"/>
    <path stroke="#000000" stroke-width="1.0" stroke-linejoin="round" stroke-linecap="butt" fill-rule="evenodd" clip-path="url(#g1faec474be9_0_363.0)"/>
    <path fill="#000000" fill-opacity="0.0" fill-rule="evenodd" clip-path="url(#g1faec474be9_0_363.0)"/>
    <path stroke="#000000" stroke-width="1.0" stroke-linejoin="round" stroke-linecap="butt" fill-rule="evenodd" clip-path="url(#g1faec474be9_0_363.0)"/>
    <path fill="#000000" fill-opacity="0.0" d="M 477.66 280.297 L 441.4 204.465" fill-rule="evenodd" clip-path="url(#g1faec474be9_0_363.0)"/>
    <path stroke="#b7b7b7" stroke-width="2.0" stroke-linejoin="round" stroke-linecap="butt" d="M 477.66 280.297 L 441.4 204.465" fill-rule="evenodd" clip-path="url(#g1faec474be9_0_363.0)"/>
    <path fill="#000000" fill-opacity="0.0" d="M 477.66 280.297 L 513.92 204.465" fill-rule="evenodd" clip-path="url(#g1faec474be9_0_363.0)"/>
    <path stroke="#ffab40" stroke-width="2.0" stroke-linejoin="round" stroke-linecap="butt" d="M 477.66 280.297 L 513.92 204.465" fill-rule="evenodd" clip-path="url(#g1faec474be9_0_363.0)"/>
    <path fill="#000000" fill-opacity="0.0" d="M 409.399 280.297 L 513.924 204.465" fill-rule="evenodd" clip-path="url(#g1faec474be9_0_363.0)"/>
    <path stroke="#ffab40" stroke-width="2.0" stroke-linejoin="round" stroke-linecap="butt" d="M 409.399 280.297 L 513.924 204.465" fill-rule="evenodd" clip-path="url(#g1faec474be9_0_363.0)"/>
    <path fill="#000000" fill-opacity="0.0" d="M 545.92 280.297 L 441.395 204.465" fill-rule="evenodd" clip-path="url(#g1faec474be9_0_363.0)"/>
    <path stroke="#b7b7b7" stroke-width="2.0" stroke-linejoin="round" stroke-linecap="butt" d="M 545.92 280.297 L 441.395 204.465" fill-rule="evenodd" clip-path="url(#g1faec474be9_0_363.0)"/>
    <path fill="#000000" fill-opacity="0.0" d="M 498.504 189.059 C 498.504 197.574 505.406 204.476 513.92 204.476 C 518.009 204.476 521.93 202.851 524.821 199.96 C 527.712 197.069 529.336 193.148 529.336 189.059 C 529.336 180.545 522.434 173.643 513.92 173.643 C 505.406 173.643 498.504 180.545 498.504 189.059 Z" fill-rule="evenodd" clip-path="url(#g1faec474be9_0_363.0)"/>
    <path stroke="#ffab40" stroke-width="2.0" stroke-linejoin="round" stroke-linecap="butt" d="M 498.504 189.059 C 498.504 197.574 505.406 204.476 513.92 204.476 C 518.009 204.476 521.93 202.851 524.821 199.96 C 527.712 197.069 529.336 193.148 529.336 189.059 C 529.336 180.545 522.434 173.643 513.92 173.643 C 505.406 173.643 498.504 180.545 498.504 189.059 Z" fill-rule="evenodd" clip-path="url(#g1faec474be9_0_363.0)"/>
    <path fill="#000000" fill-opacity="0.0" d="M 425.983 189.059 C 425.983 197.574 432.885 204.476 441.399 204.476 C 445.488 204.476 449.409 202.851 452.3 199.96 C 455.191 197.069 456.816 193.148 456.816 189.059 C 456.816 180.545 449.913 173.643 441.399 173.643 C 432.885 173.643 425.983 180.545 425.983 189.059 Z" fill-rule="evenodd" clip-path="url(#g1faec474be9_0_363.0)"/>
    <path stroke="#ffab40" stroke-width="2.0" stroke-linejoin="round" stroke-linecap="butt" d="M 425.983 189.059 C 425.983 197.574 432.885 204.476 441.399 204.476 C 445.488 204.476 449.409 202.851 452.3 199.96 C 455.191 197.069 456.816 193.148 456.816 189.059 C 456.816 180.545 449.913 173.643 441.399 173.643 C 432.885 173.643 425.983 180.545 425.983 189.059 Z" fill-rule="evenodd" clip-path="url(#g1faec474be9_0_363.0)"/>
    <path fill="#000000" fill-opacity="0.0" d="M 282.715 295.711 C 282.715 304.225 289.617 311.127 298.131 311.127 C 302.22 311.127 306.141 309.503 309.032 306.612 C 311.923 303.721 313.547 299.8 313.547 295.711 C 313.547 287.197 306.645 280.296 298.131 280.296 C 289.617 280.296 282.715 287.197 282.715 295.711 Z" fill-rule="evenodd" clip-path="url(#g1faec474be9_0_363.0)"/>
    <path stroke="#ffab40" stroke-width="2.0" stroke-linejoin="round" stroke-linecap="butt" d="M 282.715 295.711 C 282.715 304.225 289.617 311.127 298.131 311.127 C 302.22 311.127 306.141 309.503 309.032 306.612 C 311.923 303.721 313.547 299.8 313.547 295.711 C 313.547 287.197 306.645 280.296 298.131 280.296 C 289.617 280.296 282.715 287.197 282.715 295.711 Z" fill-rule="evenodd" clip-path="url(#g1faec474be9_0_363.0)"/>
    <path fill="#000000" fill-opacity="0.0" d="M 350.973 295.711 C 350.973 304.225 357.875 311.127 366.389 311.127 C 370.477 311.127 374.398 309.503 377.289 306.612 C 380.18 303.721 381.804 299.8 381.804 295.711 C 381.804 287.197 374.903 280.296 366.389 280.296 C 357.875 280.296 350.973 287.197 350.973 295.711 Z" fill-rule="evenodd" clip-path="url(#g1faec474be9_0_363.0)"/>
    <path stroke="#ffab40" stroke-width="2.0" stroke-linejoin="round" stroke-linecap="butt" d="M 350.973 295.711 C 350.973 304.225 357.875 311.127 366.389 311.127 C 370.477 311.127 374.398 309.503 377.289 306.612 C 380.18 303.721 381.804 299.8 381.804 295.711 C 381.804 287.197 374.903 280.296 366.389 280.296 C 357.875 280.296 350.973 287.197 350.973 295.711 Z" fill-rule="evenodd" clip-path="url(#g1faec474be9_0_363.0)"/>
    <path fill="#000000" fill-opacity="0.0" d="M 214.458 295.711 C 214.458 304.225 221.36 311.127 229.873 311.127 C 233.962 311.127 237.883 309.503 240.774 306.612 C 243.665 303.721 245.289 299.8 245.289 295.711 C 245.289 287.197 238.387 280.296 229.873 280.296 C 221.36 280.296 214.458 287.197 214.458 295.711 Z" fill-rule="evenodd" clip-path="url(#g1faec474be9_0_363.0)"/>
    <path stroke="#ffab40" stroke-width="2.0" stroke-linejoin="round" stroke-linecap="butt" d="M 214.458 295.711 C 214.458 304.225 221.36 311.127 229.873 311.127 C 233.962 311.127 237.883 309.503 240.774 306.612 C 243.665 303.721 245.289 299.8 245.289 295.711 C 245.289 287.197 238.387 280.296 229.873 280.296 C 221.36 280.296 214.458 287.197 214.458 295.711 Z" fill-rule="evenodd" clip-path="url(#g1faec474be9_0_363.0)"/>
    <path fill="#000000" fill-opacity="0.0" fill-rule="evenodd" clip-path="url(#g1faec474be9_0_363.0)"/>
    <path stroke="#000000" stroke-width="1.0" stroke-linejoin="round" stroke-linecap="butt" fill-rule="evenodd" clip-path="url(#g1faec474be9_0_363.0)"/>
    <path fill="#000000" fill-opacity="0.0" fill-rule="evenodd" clip-path="url(#g1faec474be9_0_363.0)"/>
    <path stroke="#000000" stroke-width="1.0" stroke-linejoin="round" stroke-linecap="butt" fill-rule="evenodd" clip-path="url(#g1faec474be9_0_363.0)"/>
    <path fill="#000000" fill-opacity="0.0" d="M 298.131 280.296 L 334.389 204.467" fill-rule="evenodd" clip-path="url(#g1faec474be9_0_363.0)"/>
    <path stroke="#ffab40" stroke-width="2.0" stroke-linejoin="round" stroke-linecap="butt" d="M 298.131 280.296 L 334.389 204.467" fill-rule="evenodd" clip-path="url(#g1faec474be9_0_363.0)"/>
    <path fill="#000000" fill-opacity="0.0" d="M 229.873 280.296 L 334.394 204.467" fill-rule="evenodd" clip-path="url(#g1faec474be9_0_363.0)"/>
    <path stroke="#ffab40" stroke-width="2.0" stroke-linejoin="round" stroke-linecap="butt" d="M 229.873 280.296 L 334.394 204.467" fill-rule="evenodd" clip-path="url(#g1faec474be9_0_363.0)"/>
    <path fill="#000000" fill-opacity="0.0" d="M 318.973 189.063 C 318.973 197.577 325.875 204.479 334.389 204.479 C 338.477 204.479 342.398 202.855 345.289 199.964 C 348.18 197.073 349.804 193.152 349.804 189.063 C 349.804 180.549 342.903 173.648 334.389 173.648 C 325.875 173.648 318.973 180.549 318.973 189.063 Z" fill-rule="evenodd" clip-path="url(#g1faec474be9_0_363.0)"/>
    <path stroke="#ffab40" stroke-width="2.0" stroke-linejoin="round" stroke-linecap="butt" d="M 318.973 189.063 C 318.973 197.577 325.875 204.479 334.389 204.479 C 338.477 204.479 342.398 202.855 345.289 199.964 C 348.18 197.073 349.804 193.152 349.804 189.063 C 349.804 180.549 342.903 173.648 334.389 173.648 C 325.875 173.648 318.973 180.549 318.973 189.063 Z" fill-rule="evenodd" clip-path="url(#g1faec474be9_0_363.0)"/>
    <path fill="#000000" fill-opacity="0.0" d="M 246.458 189.063 C 246.458 197.577 253.36 204.479 261.873 204.479 C 265.962 204.479 269.883 202.855 272.774 199.964 C 275.665 197.073 277.289 193.152 277.289 189.063 C 277.289 180.549 270.387 173.648 261.873 173.648 C 253.36 173.648 246.458 180.549 246.458 189.063 Z" fill-rule="evenodd" clip-path="url(#g1faec474be9_0_363.0)"/>
    <path stroke="#ffab40" stroke-width="2.0" stroke-linejoin="round" stroke-linecap="butt" d="M 246.458 189.063 C 246.458 197.577 253.36 204.479 261.873 204.479 C 265.962 204.479 269.883 202.855 272.774 199.964 C 275.665 197.073 277.289 193.152 277.289 189.063 C 277.289 180.549 270.387 173.648 261.873 173.648 C 253.36 173.648 246.458 180.549 246.458 189.063 Z" fill-rule="evenodd" clip-path="url(#g1faec474be9_0_363.0)"/>
    <path fill="#000000" fill-opacity="0.0" d="M 298.131 280.296 L 261.873 204.467" fill-rule="evenodd" clip-path="url(#g1faec474be9_0_363.0)"/>
    <path stroke="#b7b7b7" stroke-width="1.0" stroke-linejoin="round" stroke-linecap="butt" stroke-dasharray="4.0,3.0" d="M 298.131 280.296 L 261.873 204.467" fill-rule="evenodd" clip-path="url(#g1faec474be9_0_363.0)"/>
    <path fill="#000000" fill-opacity="0.0" d="M 366.389 280.296 L 261.868 204.467" fill-rule="evenodd" clip-path="url(#g1faec474be9_0_363.0)"/>
    <path stroke="#b7b7b7" stroke-width="1.0" stroke-linejoin="round" stroke-linecap="butt" stroke-dasharray="4.0,3.0" d="M 366.389 280.296 L 261.868 204.467" fill-rule="evenodd" clip-path="url(#g1faec474be9_0_363.0)"/>
    <path fill="#000000" fill-opacity="0.0" d="M 366.389 280.296 L 334.385 204.467" fill-rule="evenodd" clip-path="url(#g1faec474be9_0_363.0)"/>
    <path stroke="#ffab40" stroke-width="2.0" stroke-linejoin="round" stroke-linecap="butt" d="M 366.389 280.296 L 334.385 204.467" fill-rule="evenodd" clip-path="url(#g1faec474be9_0_363.0)"/>
    <path fill="#000000" fill-opacity="0.0" d="M 229.873 280.296 L 261.87 204.483" fill-rule="evenodd" clip-path="url(#g1faec474be9_0_363.0)"/>
    <path stroke="#ffab40" stroke-width="2.0" stroke-linejoin="round" stroke-linecap="butt" d="M 229.873 280.296 L 261.87 204.483" fill-rule="evenodd" clip-path="url(#g1faec474be9_0_363.0)"/>
    <path fill="#000000" fill-opacity="0.0" d="M 558.417 144.312 L 624.748 144.312 L 624.748 160.753 L 558.417 160.753 L 558.417 144.312 Z" fill-rule="evenodd" clip-path="url(#g1faec474be9_0_363.0)"/>
    <path fill="#595959" d="M 562.749 156.373 L 562.749 149.263 L 563.64 149.263 L 563.64 155.592 L 566.937 155.592 L 566.937 156.373 L 562.749 156.373 Z M 570.257 156.498 C 569.475 156.498 568.84 156.248 568.35 155.748 C 567.871 155.237 567.632 154.586 567.632 153.795 C 567.632 153.034 567.871 152.394 568.35 151.873 C 568.84 151.352 569.444 151.092 570.163 151.092 C 570.903 151.092 571.501 151.352 571.96 151.873 C 572.418 152.383 572.647 153.045 572.647 153.857 L 572.647 154.06 L 568.475 154.06 C 568.507 154.581 568.694 155.008 569.038 155.342 C 569.392 155.675 569.824 155.842 570.335 155.842 C 570.96 155.842 571.486 155.623 571.913 155.185 L 572.304 155.717 C 571.772 156.237 571.09 156.498 570.257 156.498 Z M 571.85 153.467 C 571.85 152.998 571.694 152.597 571.382 152.263 C 571.069 151.93 570.663 151.763 570.163 151.763 C 569.684 151.763 569.283 151.93 568.96 152.263 C 568.647 152.597 568.486 152.998 568.475 153.467 L 571.85 153.467 Z M 577.147 156.373 L 577.147 155.779 C 576.72 156.258 576.152 156.498 575.444 156.498 C 574.923 156.498 574.491 156.336 574.147 156.013 C 573.814 155.68 573.647 155.274 573.647 154.795 C 573.647 154.295 573.814 153.888 574.147 153.576 C 574.491 153.263 574.923 153.107 575.444 153.107 C 576.183 153.107 576.751 153.342 577.147 153.81 L 577.147 152.873 C 577.147 152.529 577.022 152.263 576.772 152.076 C 576.532 151.888 576.225 151.795 575.85 151.795 C 575.246 151.795 574.72 152.029 574.272 152.498 L 573.897 151.951 C 574.449 151.378 575.136 151.092 575.959 151.092 C 576.584 151.092 577.069 151.248 577.412 151.56 C 577.767 151.862 577.944 152.289 577.944 152.842 L 577.944 156.373 L 577.147 156.373 Z M 575.725 155.92 C 576.36 155.92 576.834 155.706 577.147 155.279 L 577.147 154.31 C 576.834 153.883 576.36 153.67 575.725 153.67 C 575.35 153.67 575.043 153.779 574.803 153.998 C 574.574 154.206 574.459 154.477 574.459 154.81 C 574.459 155.133 574.574 155.399 574.803 155.607 C 575.043 155.816 575.35 155.92 575.725 155.92 Z M 581.169 156.498 C 580.304 156.498 579.617 156.227 579.107 155.685 L 579.513 155.123 C 579.679 155.321 579.914 155.493 580.216 155.638 C 580.518 155.784 580.851 155.857 581.216 155.857 C 581.612 155.857 581.909 155.774 582.107 155.607 C 582.315 155.441 582.419 155.227 582.419 154.967 C 582.419 154.737 582.304 154.56 582.075 154.435 C 581.857 154.3 581.445 154.159 580.841 154.013 C 580.32 153.909 579.919 153.743 579.638 153.513 C 579.367 153.284 579.232 152.972 579.232 152.576 C 579.232 152.149 579.403 151.795 579.747 151.513 C 580.101 151.232 580.57 151.092 581.153 151.092 C 581.924 151.092 582.56 151.342 583.06 151.842 L 582.685 152.404 C 582.528 152.217 582.315 152.06 582.044 151.935 C 581.784 151.81 581.487 151.748 581.153 151.748 C 580.799 151.748 580.518 151.826 580.31 151.982 C 580.112 152.138 580.013 152.331 580.013 152.56 C 580.013 152.769 580.127 152.935 580.357 153.06 C 580.586 153.175 581.002 153.295 581.607 153.42 C 582.127 153.545 582.523 153.732 582.794 153.982 C 583.065 154.222 583.2 154.545 583.2 154.951 C 583.2 155.42 583.013 155.795 582.638 156.076 C 582.273 156.357 581.784 156.498 581.169 156.498 Z M 585.796 156.498 C 585.036 156.498 584.655 156.097 584.655 155.295 L 584.655 151.935 L 583.812 151.935 L 583.812 151.232 L 584.655 151.232 L 584.655 149.826 L 585.468 149.826 L 585.468 151.232 L 586.499 151.232 L 586.499 151.935 L 585.468 151.935 L 585.468 155.123 C 585.468 155.321 585.51 155.482 585.593 155.607 C 585.676 155.722 585.807 155.779 585.984 155.779 C 586.202 155.779 586.385 155.711 586.53 155.576 L 586.765 156.17 C 586.546 156.388 586.223 156.498 585.796 156.498 Z M 592.725 156.498 C 591.579 156.498 590.668 156.123 589.991 155.373 L 590.506 154.701 C 590.798 155.024 591.137 155.274 591.522 155.451 C 591.918 155.628 592.329 155.717 592.756 155.717 C 593.267 155.717 593.673 155.602 593.975 155.373 C 594.277 155.144 594.428 154.847 594.428 154.482 C 594.428 153.92 593.986 153.519 593.1 153.279 C 592.059 153.008 591.392 152.789 591.1 152.623 C 590.819 152.456 590.6 152.253 590.444 152.013 C 590.288 151.763 590.21 151.467 590.21 151.123 C 590.21 150.56 590.439 150.092 590.897 149.717 C 591.355 149.342 591.939 149.154 592.647 149.154 C 593.72 149.154 594.564 149.487 595.178 150.154 L 594.647 150.795 C 594.137 150.232 593.449 149.951 592.585 149.951 C 592.158 149.951 591.809 150.055 591.538 150.263 C 591.267 150.461 591.131 150.732 591.131 151.076 C 591.131 151.326 591.246 151.539 591.475 151.717 C 591.704 151.883 592.033 152.024 592.46 152.138 C 593.47 152.409 594.121 152.633 594.413 152.81 C 594.715 152.987 594.944 153.206 595.1 153.467 C 595.256 153.727 595.335 154.045 595.335 154.42 C 595.335 155.066 595.095 155.576 594.616 155.951 C 594.147 156.316 593.517 156.498 592.725 156.498 Z M 599.845 156.373 L 599.845 155.779 C 599.418 156.258 598.85 156.498 598.142 156.498 C 597.621 156.498 597.189 156.336 596.845 156.013 C 596.512 155.68 596.345 155.274 596.345 154.795 C 596.345 154.295 596.512 153.888 596.845 153.576 C 597.189 153.263 597.621 153.107 598.142 153.107 C 598.881 153.107 599.449 153.342 599.845 153.81 L 599.845 152.873 C 599.845 152.529 599.72 152.263 599.47 152.076 C 599.23 151.888 598.923 151.795 598.548 151.795 C 597.944 151.795 597.418 152.029 596.97 152.498 L 596.595 151.951 C 597.147 151.378 597.834 151.092 598.657 151.092 C 599.282 151.092 599.767 151.248 600.11 151.56 C 600.465 151.862 600.642 152.289 600.642 152.842 L 600.642 156.373 L 599.845 156.373 Z M 598.423 155.92 C 599.058 155.92 599.532 155.706 599.845 155.279 L 599.845 154.31 C 599.532 153.883 599.058 153.67 598.423 153.67 C 598.048 153.67 597.741 153.779 597.501 153.998 C 597.272 154.206 597.157 154.477 597.157 154.81 C 597.157 155.133 597.272 155.399 597.501 155.607 C 597.741 155.816 598.048 155.92 598.423 155.92 Z M 602.242 156.373 L 602.242 149.263 L 603.039 149.263 L 603.039 156.373 L 602.242 156.373 Z M 605.03 150.498 C 604.895 150.498 604.77 150.446 604.655 150.342 C 604.551 150.237 604.499 150.107 604.499 149.951 C 604.499 149.805 604.551 149.68 604.655 149.576 C 604.77 149.472 604.895 149.42 605.03 149.42 C 605.187 149.42 605.317 149.472 605.421 149.576 C 605.525 149.68 605.577 149.805 605.577 149.951 C 605.577 150.107 605.525 150.237 605.421 150.342 C 605.317 150.446 605.187 150.498 605.03 150.498 Z M 604.64 156.373 L 604.64 151.232 L 605.437 151.232 L 605.437 156.373 L 604.64 156.373 Z M 609.365 156.498 C 608.584 156.498 607.949 156.248 607.459 155.748 C 606.98 155.237 606.74 154.586 606.74 153.795 C 606.74 153.034 606.98 152.394 607.459 151.873 C 607.949 151.352 608.553 151.092 609.272 151.092 C 610.011 151.092 610.61 151.352 611.069 151.873 C 611.527 152.383 611.756 153.045 611.756 153.857 L 611.756 154.06 L 607.584 154.06 C 607.615 154.581 607.803 155.008 608.147 155.342 C 608.501 155.675 608.933 155.842 609.444 155.842 C 610.069 155.842 610.595 155.623 611.022 155.185 L 611.412 155.717 C 610.881 156.237 610.199 156.498 609.365 156.498 Z M 610.959 153.467 C 610.959 152.998 610.803 152.597 610.49 152.263 C 610.178 151.93 609.772 151.763 609.272 151.763 C 608.793 151.763 608.392 151.93 608.069 152.263 C 607.756 152.597 607.595 152.998 607.584 153.467 L 610.959 153.467 Z M 616.506 156.373 L 616.506 152.998 C 616.506 152.55 616.402 152.243 616.193 152.076 C 615.985 151.899 615.709 151.81 615.365 151.81 C 615.063 151.81 614.766 151.894 614.474 152.06 C 614.193 152.217 613.98 152.399 613.834 152.607 L 613.834 156.373 L 613.037 156.373 L 613.037 151.232 L 613.834 151.232 L 613.834 151.967 C 614.053 151.717 614.323 151.508 614.646 151.342 C 614.98 151.175 615.323 151.092 615.678 151.092 C 616.771 151.092 617.318 151.649 617.318 152.763 L 617.318 156.373 L 616.506 156.373 Z M 620.205 156.498 C 619.445 156.498 619.065 156.097 619.065 155.295 L 619.065 151.935 L 618.221 151.935 L 618.221 151.232 L 619.065 151.232 L 619.065 149.826 L 619.877 149.826 L 619.877 151.232 L 620.909 151.232 L 620.909 151.935 L 619.877 151.935 L 619.877 155.123 C 619.877 155.321 619.919 155.482 620.002 155.607 C 620.086 155.722 620.216 155.779 620.393 155.779 C 620.612 155.779 620.794 155.711 620.94 155.576 L 621.174 156.17 C 620.955 156.388 620.633 156.498 620.205 156.498 Z" fill-rule="nonzero" clip-path="url(#g1faec474be9_0_363.0)"/>
    <path fill="#000000" fill-opacity="0.0" d="M 628.211 152.533 L 648.778 152.533" fill-rule="evenodd" clip-path="url(#g1faec474be9_0_363.0)"/>
    <path stroke="#b7b7b7" stroke-width="2.0" stroke-linejoin="round" stroke-linecap="butt" d="M 628.211 152.533 L 648.778 152.533" fill-rule="evenodd" clip-path="url(#g1faec474be9_0_363.0)"/>
    <path fill="#000000" fill-opacity="0.0" d="M 461.266 144.312 L 521.172 144.312 L 521.172 160.753 L 461.266 160.753 L 461.266 144.312 Z" fill-rule="evenodd" clip-path="url(#g1faec474be9_0_363.0)"/>
    <path fill="#595959" d="M 469.518 156.373 L 469.518 150.529 L 467.097 156.373 L 466.737 156.373 L 464.331 150.529 L 464.331 156.373 L 463.44 156.373 L 463.44 149.263 L 464.706 149.263 L 466.925 154.607 L 469.128 149.263 L 470.409 149.263 L 470.409 156.373 L 469.518 156.373 Z M 474.28 156.498 C 473.53 156.498 472.915 156.248 472.436 155.748 C 471.968 155.237 471.733 154.586 471.733 153.795 C 471.733 153.003 471.968 152.357 472.436 151.857 C 472.915 151.347 473.53 151.092 474.28 151.092 C 475.03 151.092 475.639 151.347 476.108 151.857 C 476.587 152.357 476.827 153.003 476.827 153.795 C 476.827 154.586 476.587 155.237 476.108 155.748 C 475.639 156.248 475.03 156.498 474.28 156.498 Z M 474.28 155.779 C 474.78 155.779 475.186 155.597 475.499 155.232 C 475.822 154.857 475.983 154.378 475.983 153.795 C 475.983 153.222 475.822 152.748 475.499 152.373 C 475.186 151.998 474.78 151.81 474.28 151.81 C 473.78 151.81 473.369 151.998 473.046 152.373 C 472.723 152.737 472.561 153.211 472.561 153.795 C 472.561 154.388 472.723 154.868 473.046 155.232 C 473.369 155.597 473.78 155.779 474.28 155.779 Z M 479.75 156.498 C 478.886 156.498 478.198 156.227 477.688 155.685 L 478.094 155.123 C 478.261 155.321 478.495 155.493 478.797 155.638 C 479.099 155.784 479.433 155.857 479.797 155.857 C 480.193 155.857 480.49 155.774 480.688 155.607 C 480.896 155.441 481 155.227 481 154.967 C 481 154.737 480.886 154.56 480.657 154.435 C 480.438 154.3 480.027 154.159 479.422 154.013 C 478.902 153.909 478.5 153.743 478.219 153.513 C 477.948 153.284 477.813 152.972 477.813 152.576 C 477.813 152.149 477.985 151.795 478.329 151.513 C 478.683 151.232 479.152 151.092 479.735 151.092 C 480.506 151.092 481.141 151.342 481.641 151.842 L 481.266 152.404 C 481.11 152.217 480.896 152.06 480.625 151.935 C 480.365 151.81 480.068 151.748 479.735 151.748 C 479.381 151.748 479.099 151.826 478.891 151.982 C 478.693 152.138 478.594 152.331 478.594 152.56 C 478.594 152.769 478.709 152.935 478.938 153.06 C 479.167 153.175 479.584 153.295 480.188 153.42 C 480.709 153.545 481.105 153.732 481.375 153.982 C 481.646 154.222 481.782 154.545 481.782 154.951 C 481.782 155.42 481.594 155.795 481.219 156.076 C 480.855 156.357 480.365 156.498 479.75 156.498 Z M 484.378 156.498 C 483.617 156.498 483.237 156.097 483.237 155.295 L 483.237 151.935 L 482.393 151.935 L 482.393 151.232 L 483.237 151.232 L 483.237 149.826 L 484.049 149.826 L 484.049 151.232 L 485.081 151.232 L 485.081 151.935 L 484.049 151.935 L 484.049 155.123 C 484.049 155.321 484.091 155.482 484.174 155.607 C 484.258 155.722 484.388 155.779 484.565 155.779 C 484.784 155.779 484.966 155.711 485.112 155.576 L 485.346 156.17 C 485.128 156.388 484.805 156.498 484.378 156.498 Z M 491.307 156.498 C 490.161 156.498 489.249 156.123 488.572 155.373 L 489.088 154.701 C 489.38 155.024 489.718 155.274 490.104 155.451 C 490.499 155.628 490.911 155.717 491.338 155.717 C 491.848 155.717 492.255 155.602 492.557 155.373 C 492.859 155.144 493.01 154.847 493.01 154.482 C 493.01 153.92 492.567 153.519 491.682 153.279 C 490.64 153.008 489.973 152.789 489.682 152.623 C 489.4 152.456 489.182 152.253 489.025 152.013 C 488.869 151.763 488.791 151.467 488.791 151.123 C 488.791 150.56 489.02 150.092 489.479 149.717 C 489.937 149.342 490.52 149.154 491.229 149.154 C 492.302 149.154 493.145 149.487 493.76 150.154 L 493.229 150.795 C 492.718 150.232 492.031 149.951 491.166 149.951 C 490.739 149.951 490.39 150.055 490.119 150.263 C 489.848 150.461 489.713 150.732 489.713 151.076 C 489.713 151.326 489.828 151.539 490.057 151.717 C 490.286 151.883 490.614 152.024 491.041 152.138 C 492.052 152.409 492.703 152.633 492.994 152.81 C 493.296 152.987 493.525 153.206 493.682 153.467 C 493.838 153.727 493.916 154.045 493.916 154.42 C 493.916 155.066 493.677 155.576 493.197 155.951 C 492.729 156.316 492.098 156.498 491.307 156.498 Z M 498.426 156.373 L 498.426 155.779 C 497.999 156.258 497.432 156.498 496.723 156.498 C 496.202 156.498 495.77 156.336 495.426 156.013 C 495.093 155.68 494.926 155.274 494.926 154.795 C 494.926 154.295 495.093 153.888 495.426 153.576 C 495.77 153.263 496.202 153.107 496.723 153.107 C 497.463 153.107 498.031 153.342 498.426 153.81 L 498.426 152.873 C 498.426 152.529 498.301 152.263 498.051 152.076 C 497.812 151.888 497.504 151.795 497.129 151.795 C 496.525 151.795 495.999 152.029 495.551 152.498 L 495.176 151.951 C 495.728 151.378 496.416 151.092 497.239 151.092 C 497.864 151.092 498.348 151.248 498.692 151.56 C 499.046 151.862 499.223 152.289 499.223 152.842 L 499.223 156.373 L 498.426 156.373 Z M 497.004 155.92 C 497.64 155.92 498.114 155.706 498.426 155.279 L 498.426 154.31 C 498.114 153.883 497.64 153.67 497.004 153.67 C 496.629 153.67 496.322 153.779 496.083 153.998 C 495.853 154.206 495.739 154.477 495.739 154.81 C 495.739 155.133 495.853 155.399 496.083 155.607 C 496.322 155.816 496.629 155.92 497.004 155.92 Z M 500.824 156.373 L 500.824 149.263 L 501.62 149.263 L 501.62 156.373 L 500.824 156.373 Z M 503.612 150.498 C 503.476 150.498 503.351 150.446 503.237 150.342 C 503.133 150.237 503.081 150.107 503.081 149.951 C 503.081 149.805 503.133 149.68 503.237 149.576 C 503.351 149.472 503.476 149.42 503.612 149.42 C 503.768 149.42 503.898 149.472 504.002 149.576 C 504.107 149.68 504.159 149.805 504.159 149.951 C 504.159 150.107 504.107 150.237 504.002 150.342 C 503.898 150.446 503.768 150.498 503.612 150.498 Z M 503.221 156.373 L 503.221 151.232 L 504.018 151.232 L 504.018 156.373 L 503.221 156.373 Z M 507.947 156.498 C 507.166 156.498 506.53 156.248 506.041 155.748 C 505.562 155.237 505.322 154.586 505.322 153.795 C 505.322 153.034 505.562 152.394 506.041 151.873 C 506.53 151.352 507.134 151.092 507.853 151.092 C 508.593 151.092 509.192 151.352 509.65 151.873 C 510.108 152.383 510.338 153.045 510.338 153.857 L 510.338 154.06 L 506.166 154.06 C 506.197 154.581 506.384 155.008 506.728 155.342 C 507.082 155.675 507.515 155.842 508.025 155.842 C 508.65 155.842 509.176 155.623 509.603 155.185 L 509.994 155.717 C 509.463 156.237 508.78 156.498 507.947 156.498 Z M 509.541 153.467 C 509.541 152.998 509.384 152.597 509.072 152.263 C 508.759 151.93 508.353 151.763 507.853 151.763 C 507.374 151.763 506.973 151.93 506.65 152.263 C 506.338 152.597 506.176 152.998 506.166 153.467 L 509.541 153.467 Z M 515.087 156.373 L 515.087 152.998 C 515.087 152.55 514.983 152.243 514.775 152.076 C 514.566 151.899 514.29 151.81 513.947 151.81 C 513.644 151.81 513.348 151.894 513.056 152.06 C 512.775 152.217 512.561 152.399 512.415 152.607 L 512.415 156.373 L 511.618 156.373 L 511.618 151.232 L 512.415 151.232 L 512.415 151.967 C 512.634 151.717 512.905 151.508 513.228 151.342 C 513.561 151.175 513.905 151.092 514.259 151.092 C 515.353 151.092 515.9 151.649 515.9 152.763 L 515.9 156.373 L 515.087 156.373 Z M 518.787 156.498 C 518.027 156.498 517.646 156.097 517.646 155.295 L 517.646 151.935 L 516.803 151.935 L 516.803 151.232 L 517.646 151.232 L 517.646 149.826 L 518.459 149.826 L 518.459 151.232 L 519.49 151.232 L 519.49 151.935 L 518.459 151.935 L 518.459 155.123 C 518.459 155.321 518.5 155.482 518.584 155.607 C 518.667 155.722 518.797 155.779 518.974 155.779 C 519.193 155.779 519.375 155.711 519.521 155.576 L 519.756 156.17 C 519.537 156.388 519.214 156.498 518.787 156.498 Z" fill-rule="nonzero" clip-path="url(#g1faec474be9_0_363.0)"/>
    <path fill="#000000" fill-opacity="0.0" d="M 527.335 152.533 L 547.902 152.533" fill-rule="evenodd" clip-path="url(#g1faec474be9_0_363.0)"/>
    <path stroke="#ffab40" stroke-width="2.0" stroke-linejoin="round" stroke-linecap="butt" d="M 527.335 152.533 L 547.902 152.533" fill-rule="evenodd" clip-path="url(#g1faec474be9_0_363.0)"/>
    <path fill="#000000" fill-opacity="0.0" d="M 654.49 144.312 L 714.395 144.312 L 714.395 160.753 L 654.49 160.753 L 654.49 144.312 Z" fill-rule="evenodd" clip-path="url(#g1faec474be9_0_363.0)"/>
    <path fill="#595959" d="M 672.966 156.372 L 672.966 150.529 L 670.544 156.372 L 670.185 156.372 L 667.779 150.529 L 667.779 156.372 L 666.888 156.372 L 666.888 149.263 L 668.154 149.263 L 670.373 154.607 L 672.576 149.263 L 673.857 149.263 L 673.857 156.372 L 672.966 156.372 Z M 678.697 156.372 L 678.697 155.779 C 678.27 156.258 677.702 156.497 676.994 156.497 C 676.473 156.497 676.04 156.336 675.697 156.013 C 675.363 155.68 675.197 155.273 675.197 154.794 C 675.197 154.294 675.363 153.888 675.697 153.575 C 676.04 153.263 676.473 153.107 676.994 153.107 C 677.733 153.107 678.301 153.341 678.697 153.81 L 678.697 152.872 C 678.697 152.529 678.572 152.263 678.322 152.075 C 678.082 151.888 677.775 151.794 677.4 151.794 C 676.796 151.794 676.27 152.029 675.822 152.497 L 675.447 151.95 C 675.999 151.378 676.686 151.091 677.509 151.091 C 678.134 151.091 678.619 151.247 678.962 151.56 C 679.316 151.862 679.494 152.289 679.494 152.841 L 679.494 156.372 L 678.697 156.372 Z M 677.275 155.919 C 677.91 155.919 678.384 155.706 678.697 155.279 L 678.697 154.31 C 678.384 153.883 677.91 153.669 677.275 153.669 C 676.9 153.669 676.592 153.779 676.353 153.997 C 676.124 154.206 676.009 154.477 676.009 154.81 C 676.009 155.133 676.124 155.398 676.353 155.607 C 676.592 155.815 676.9 155.919 677.275 155.919 Z M 682.719 156.497 C 681.854 156.497 681.167 156.227 680.656 155.685 L 681.063 155.122 C 681.229 155.32 681.464 155.492 681.766 155.638 C 682.068 155.784 682.401 155.857 682.766 155.857 C 683.162 155.857 683.458 155.773 683.656 155.607 C 683.865 155.44 683.969 155.227 683.969 154.966 C 683.969 154.737 683.854 154.56 683.625 154.435 C 683.406 154.299 682.995 154.159 682.391 154.013 C 681.87 153.909 681.469 153.742 681.188 153.513 C 680.917 153.284 680.781 152.971 680.781 152.575 C 680.781 152.148 680.953 151.794 681.297 151.513 C 681.651 151.232 682.12 151.091 682.703 151.091 C 683.474 151.091 684.109 151.341 684.609 151.841 L 684.234 152.404 C 684.078 152.216 683.865 152.06 683.594 151.935 C 683.333 151.81 683.037 151.747 682.703 151.747 C 682.349 151.747 682.068 151.825 681.859 151.982 C 681.662 152.138 681.563 152.331 681.563 152.56 C 681.563 152.768 681.677 152.935 681.906 153.06 C 682.135 153.174 682.552 153.294 683.156 153.419 C 683.677 153.544 684.073 153.732 684.344 153.982 C 684.615 154.221 684.75 154.544 684.75 154.95 C 684.75 155.419 684.563 155.794 684.188 156.075 C 683.823 156.357 683.333 156.497 682.719 156.497 Z M 689.565 156.372 L 687.705 154.06 L 686.846 154.904 L 686.846 156.372 L 686.049 156.372 L 686.049 149.263 L 686.846 149.263 L 686.846 153.966 L 689.565 151.232 L 690.565 151.232 L 688.283 153.56 L 690.58 156.372 L 689.565 156.372 Z M 693.823 156.497 C 693.041 156.497 692.406 156.247 691.916 155.747 C 691.437 155.237 691.198 154.586 691.198 153.794 C 691.198 153.034 691.437 152.393 691.916 151.872 C 692.406 151.352 693.01 151.091 693.729 151.091 C 694.468 151.091 695.067 151.352 695.526 151.872 C 695.984 152.383 696.213 153.044 696.213 153.857 L 696.213 154.06 L 692.041 154.06 C 692.073 154.581 692.26 155.008 692.604 155.341 C 692.958 155.674 693.39 155.841 693.901 155.841 C 694.526 155.841 695.052 155.622 695.479 155.185 L 695.869 155.716 C 695.338 156.237 694.656 156.497 693.823 156.497 Z M 695.416 153.466 C 695.416 152.997 695.26 152.596 694.948 152.263 C 694.635 151.93 694.229 151.763 693.729 151.763 C 693.25 151.763 692.849 151.93 692.526 152.263 C 692.213 152.596 692.052 152.997 692.041 153.466 L 695.416 153.466 Z M 701.228 156.372 L 701.228 155.607 C 701.03 155.867 700.78 156.081 700.478 156.247 C 700.176 156.414 699.848 156.497 699.494 156.497 C 698.806 156.497 698.249 156.253 697.822 155.763 C 697.405 155.273 697.197 154.622 697.197 153.81 C 697.197 152.987 697.405 152.331 697.822 151.841 C 698.249 151.341 698.806 151.091 699.494 151.091 C 699.838 151.091 700.161 151.174 700.463 151.341 C 700.765 151.497 701.02 151.716 701.228 151.997 L 701.228 149.263 L 702.025 149.263 L 702.025 156.372 L 701.228 156.372 Z M 699.681 155.779 C 700.004 155.779 700.306 155.7 700.588 155.544 C 700.869 155.388 701.082 155.2 701.228 154.982 L 701.228 152.638 C 701.082 152.409 700.869 152.216 700.588 152.06 C 700.306 151.893 700.004 151.81 699.681 151.81 C 699.181 151.81 698.78 151.992 698.478 152.357 C 698.176 152.721 698.025 153.206 698.025 153.81 C 698.025 154.393 698.176 154.867 698.478 155.232 C 698.78 155.596 699.181 155.779 699.681 155.779 Z" fill-rule="nonzero" clip-path="url(#g1faec474be9_0_363.0)"/>
    <path fill="#000000" fill-opacity="0.0" d="M 707.613 152.532 L 728.18 152.532" fill-rule="evenodd" clip-path="url(#g1faec474be9_0_363.0)"/>
    <path stroke="#cccccc" stroke-width="1.0" stroke-linejoin="round" stroke-linecap="butt" stroke-dasharray="4.0,3.0" d="M 707.613 152.532 L 728.18 152.532" fill-rule="evenodd" clip-path="url(#g1faec474be9_0_363.0)"/>
    <path fill="#000000" fill-opacity="0.0" d="M 408.917 243.22 L 365.358 243.22" fill-rule="evenodd" clip-path="url(#g1faec474be9_0_363.0)"/>
    <path stroke="#ffab40" stroke-width="3.0" stroke-linejoin="round" stroke-linecap="butt" d="M 408.917 243.22 L 383.358 243.22" fill-rule="evenodd" clip-path="url(#g1faec474be9_0_363.0)"/>
    <path fill="#ffab40" stroke="#ffab40" stroke-width="3.0" stroke-linecap="butt" d="M 383.358 238.265 L 369.744 243.22 L 383.358 248.176 L 383.358 238.265 Z" fill-rule="evenodd" clip-path="url(#g1faec474be9_0_363.0)"/>
    <path fill="#000000" fill-opacity="0.0" d="M 542.096 241.638 L 585.655 241.638" fill-rule="evenodd" clip-path="url(#g1faec474be9_0_363.0)"/>
    <path stroke="#ffab40" stroke-width="3.0" stroke-linejoin="round" stroke-linecap="butt" d="M 542.096 241.638 L 567.655 241.638" fill-rule="evenodd" clip-path="url(#g1faec474be9_0_363.0)"/>
    <path fill="#ffab40" stroke="#ffab40" stroke-width="3.0" stroke-linecap="butt" d="M 567.655 246.593 L 581.269 241.638 L 567.655 236.683 L 567.655 246.593 Z" fill-rule="evenodd" clip-path="url(#g1faec474be9_0_363.0)"/>
    <path fill="#d9d9d9" d="M 513.58 327.875 L 513.58 351.403 L 489.234 351.403 L 489.234 327.875 L 513.58 327.875 Z" fill-rule="evenodd" clip-path="url(#g1faec474be9_0_363.0)"/>
    <path stroke="#ffffff" stroke-width="1.0" stroke-linejoin="round" stroke-linecap="butt" d="M 513.58 327.875 L 513.58 351.403 L 489.234 351.403 L 489.234 327.875 L 513.58 327.875 Z" fill-rule="evenodd" clip-path="url(#g1faec474be9_0_363.0)"/>
    <path fill="#ffab40" d="M 513.58 350.93 L 513.58 374.458 L 489.234 374.458 L 489.234 350.93 L 513.58 350.93 Z" fill-rule="evenodd" clip-path="url(#g1faec474be9_0_363.0)"/>
    <path stroke="#ffffff" stroke-width="1.0" stroke-linejoin="round" stroke-linecap="butt" d="M 513.58 350.93 L 513.58 374.458 L 489.234 374.458 L 489.234 350.93 L 513.58 350.93 Z" fill-rule="evenodd" clip-path="url(#g1faec474be9_0_363.0)"/>
    <path fill="#d9d9d9" d="M 489.234 327.875 L 489.234 351.403 L 464.887 351.403 L 464.887 327.875 L 489.234 327.875 Z" fill-rule="evenodd" clip-path="url(#g1faec474be9_0_363.0)"/>
    <path stroke="#ffffff" stroke-width="1.0" stroke-linejoin="round" stroke-linecap="butt" d="M 489.234 327.875 L 489.234 351.403 L 464.887 351.403 L 464.887 327.875 L 489.234 327.875 Z" fill-rule="evenodd" clip-path="url(#g1faec474be9_0_363.0)"/>
    <path fill="#ffab40" d="M 489.234 350.93 L 489.234 374.458 L 464.887 374.458 L 464.887 350.93 L 489.234 350.93 Z" fill-rule="evenodd" clip-path="url(#g1faec474be9_0_363.0)"/>
    <path stroke="#ffffff" stroke-width="1.0" stroke-linejoin="round" stroke-linecap="butt" d="M 489.234 350.93 L 489.234 374.458 L 464.887 374.458 L 464.887 350.93 L 489.234 350.93 Z" fill-rule="evenodd" clip-path="url(#g1faec474be9_0_363.0)"/>
    <path fill="#ffab40" d="M 464.887 350.93 L 464.887 374.458 L 440.541 374.458 L 440.541 350.93 L 464.887 350.93 Z" fill-rule="evenodd" clip-path="url(#g1faec474be9_0_363.0)"/>
    <path stroke="#ffffff" stroke-width="1.0" stroke-linejoin="round" stroke-linecap="butt" d="M 464.887 350.93 L 464.887 374.458 L 440.541 374.458 L 440.541 350.93 L 464.887 350.93 Z" fill-rule="evenodd" clip-path="url(#g1faec474be9_0_363.0)"/>
    <path fill="#ffab40" d="M 464.887 327.875 L 464.887 351.403 L 440.541 351.403 L 440.541 327.875 L 464.887 327.875 Z" fill-rule="evenodd" clip-path="url(#g1faec474be9_0_363.0)"/>
    <path stroke="#ffffff" stroke-width="1.0" stroke-linejoin="round" stroke-linecap="butt" d="M 464.887 327.875 L 464.887 351.403 L 440.541 351.403 L 440.541 327.875 L 464.887 327.875 Z" fill-rule="evenodd" clip-path="url(#g1faec474be9_0_363.0)"/>
    <path fill="#d9d9d9" d="M 649.504 327.875 L 649.504 351.403 L 625.157 351.403 L 625.157 327.875 L 649.504 327.875 Z" fill-rule="evenodd" clip-path="url(#g1faec474be9_0_363.0)"/>
    <path stroke="#ffffff" stroke-width="1.0" stroke-linejoin="round" stroke-linecap="butt" d="M 649.504 327.875 L 649.504 351.403 L 625.157 351.403 L 625.157 327.875 L 649.504 327.875 Z" fill-rule="evenodd" clip-path="url(#g1faec474be9_0_363.0)"/>
    <path fill="#ffab40" d="M 649.504 350.93 L 649.504 374.458 L 625.157 374.458 L 625.157 350.93 L 649.504 350.93 Z" fill-rule="evenodd" clip-path="url(#g1faec474be9_0_363.0)"/>
    <path stroke="#ffffff" stroke-width="1.0" stroke-linejoin="round" stroke-linecap="butt" d="M 649.504 350.93 L 649.504 374.458 L 625.157 374.458 L 625.157 350.93 L 649.504 350.93 Z" fill-rule="evenodd" clip-path="url(#g1faec474be9_0_363.0)"/>
    <path fill="#ffffff" d="M 625.158 327.875 L 625.158 351.403 L 600.811 351.403 L 600.811 327.875 L 625.158 327.875 Z" fill-rule="evenodd" clip-path="url(#g1faec474be9_0_363.0)"/>
    <path stroke="#d9d9d9" stroke-width="1.0" stroke-linejoin="round" stroke-linecap="butt" stroke-dasharray="4.0,3.0" d="M 625.158 327.875 L 625.158 351.403 L 600.811 351.403 L 600.811 327.875 L 625.158 327.875 Z" fill-rule="evenodd" clip-path="url(#g1faec474be9_0_363.0)"/>
    <path fill="#ffab40" d="M 625.158 350.93 L 625.158 374.458 L 600.811 374.458 L 600.811 350.93 L 625.158 350.93 Z" fill-rule="evenodd" clip-path="url(#g1faec474be9_0_363.0)"/>
    <path stroke="#ffffff" stroke-width="1.0" stroke-linejoin="round" stroke-linecap="butt" d="M 625.158 350.93 L 625.158 374.458 L 600.811 374.458 L 600.811 350.93 L 625.158 350.93 Z" fill-rule="evenodd" clip-path="url(#g1faec474be9_0_363.0)"/>
    <path fill="#ffffff" d="M 600.811 350.93 L 600.811 374.458 L 576.465 374.458 L 576.465 350.93 L 600.811 350.93 Z" fill-rule="evenodd" clip-path="url(#g1faec474be9_0_363.0)"/>
    <path stroke="#d9d9d9" stroke-width="1.0" stroke-linejoin="round" stroke-linecap="butt" stroke-dasharray="4.0,3.0" d="M 600.811 350.93 L 600.811 374.458 L 576.465 374.458 L 576.465 350.93 L 600.811 350.93 Z" fill-rule="evenodd" clip-path="url(#g1faec474be9_0_363.0)"/>
    <path fill="#ffab40" d="M 600.811 327.875 L 600.811 351.403 L 576.465 351.403 L 576.465 327.875 L 600.811 327.875 Z" fill-rule="evenodd" clip-path="url(#g1faec474be9_0_363.0)"/>
    <path stroke="#ffffff" stroke-width="1.0" stroke-linejoin="round" stroke-linecap="butt" d="M 600.811 327.875 L 600.811 351.403 L 576.465 351.403 L 576.465 327.875 L 600.811 327.875 Z" fill-rule="evenodd" clip-path="url(#g1faec474be9_0_363.0)"/>
    <path fill="#000000" fill-opacity="0.0" d="M 347.278 204.297 L 427.782 204.297 L 427.782 228.643 L 347.278 228.643 L 347.278 204.297 Z" fill-rule="evenodd" clip-path="url(#g1faec474be9_0_363.0)"/>
    <path fill="#000000" d="M 355.889 213.27 L 355.889 212.364 C 355.639 212.645 355.31 212.895 354.904 213.114 C 354.508 213.322 354.071 213.426 353.592 213.426 C 352.227 213.426 351.545 212.744 351.545 211.379 L 351.545 206.832 L 352.545 206.832 L 352.545 211.067 C 352.545 211.577 352.659 211.952 352.889 212.192 C 353.118 212.421 353.482 212.535 353.982 212.535 C 354.378 212.535 354.748 212.442 355.092 212.254 C 355.435 212.056 355.701 211.827 355.889 211.567 L 355.889 206.832 L 356.889 206.832 L 356.889 213.27 L 355.889 213.27 Z M 363.232 213.27 L 363.232 209.051 C 363.232 208.489 363.102 208.103 362.842 207.895 C 362.581 207.676 362.232 207.567 361.795 207.567 C 361.42 207.567 361.05 207.666 360.685 207.864 C 360.331 208.061 360.066 208.296 359.889 208.567 L 359.889 213.27 L 358.889 213.27 L 358.889 206.832 L 359.889 206.832 L 359.889 207.77 C 360.159 207.447 360.498 207.186 360.904 206.989 C 361.31 206.78 361.738 206.676 362.185 206.676 C 363.55 206.676 364.232 207.369 364.232 208.754 L 364.232 213.27 L 363.232 213.27 Z M 368.264 213.426 C 367.18 213.426 366.316 213.088 365.67 212.41 L 366.185 211.692 C 366.404 211.942 366.701 212.16 367.076 212.348 C 367.451 212.525 367.863 212.614 368.31 212.614 C 368.81 212.614 369.185 212.509 369.435 212.301 C 369.696 212.093 369.826 211.827 369.826 211.504 C 369.826 211.223 369.685 211.004 369.404 210.848 C 369.133 210.681 368.613 210.504 367.842 210.317 C 367.196 210.192 366.701 209.983 366.357 209.692 C 366.014 209.4 365.842 209.009 365.842 208.52 C 365.842 207.978 366.06 207.535 366.498 207.192 C 366.935 206.848 367.519 206.676 368.248 206.676 C 369.217 206.676 370.008 206.983 370.623 207.598 L 370.17 208.301 C 369.972 208.072 369.706 207.879 369.373 207.723 C 369.04 207.567 368.665 207.489 368.248 207.489 C 367.8 207.489 367.451 207.588 367.201 207.785 C 366.951 207.973 366.826 208.213 366.826 208.504 C 366.826 208.754 366.967 208.957 367.248 209.114 C 367.529 209.259 368.05 209.416 368.81 209.582 C 369.467 209.728 369.961 209.957 370.295 210.27 C 370.639 210.572 370.81 210.978 370.81 211.489 C 370.81 212.082 370.576 212.556 370.107 212.91 C 369.649 213.254 369.034 213.426 368.264 213.426 Z M 374.055 213.426 C 373.107 213.426 372.633 212.926 372.633 211.926 L 372.633 207.707 L 371.57 207.707 L 371.57 206.832 L 372.633 206.832 L 372.633 205.067 L 373.633 205.067 L 373.633 206.832 L 374.93 206.832 L 374.93 207.707 L 373.633 207.707 L 373.633 211.707 C 373.633 211.947 373.685 212.145 373.789 212.301 C 373.893 212.457 374.06 212.535 374.289 212.535 C 374.56 212.535 374.784 212.447 374.961 212.27 L 375.258 213.02 C 374.977 213.291 374.576 213.426 374.055 213.426 Z M 376.348 213.27 L 376.348 206.832 L 377.348 206.832 L 377.348 207.879 C 377.942 207.088 378.656 206.692 379.489 206.692 L 379.489 207.723 L 379.098 207.692 C 378.796 207.692 378.463 207.801 378.098 208.02 C 377.734 208.228 377.484 208.457 377.348 208.707 L 377.348 213.27 L 376.348 213.27 Z M 385.09 213.27 L 385.09 212.364 C 384.84 212.645 384.512 212.895 384.106 213.114 C 383.71 213.322 383.273 213.426 382.793 213.426 C 381.429 213.426 380.747 212.744 380.747 211.379 L 380.747 206.832 L 381.747 206.832 L 381.747 211.067 C 381.747 211.577 381.861 211.952 382.09 212.192 C 382.319 212.421 382.684 212.535 383.184 212.535 C 383.58 212.535 383.95 212.442 384.293 212.254 C 384.637 212.056 384.903 211.827 385.09 211.567 L 385.09 206.832 L 386.09 206.832 L 386.09 213.27 L 385.09 213.27 Z M 390.934 213.426 C 389.986 213.426 389.21 213.108 388.606 212.473 C 388.012 211.827 387.715 211.02 387.715 210.051 C 387.715 209.082 388.012 208.28 388.606 207.645 C 389.21 206.999 389.986 206.676 390.934 206.676 C 391.924 206.676 392.71 207.046 393.293 207.785 L 392.622 208.41 C 392.215 207.848 391.668 207.567 390.981 207.567 C 390.325 207.567 389.788 207.796 389.372 208.254 C 388.965 208.713 388.762 209.311 388.762 210.051 C 388.762 210.791 388.965 211.39 389.372 211.848 C 389.778 212.306 390.314 212.535 390.981 212.535 C 391.658 212.535 392.205 212.254 392.622 211.692 L 393.293 212.317 C 392.71 213.056 391.924 213.426 390.934 213.426 Z M 396.313 213.426 C 395.365 213.426 394.891 212.926 394.891 211.926 L 394.891 207.707 L 393.828 207.707 L 393.828 206.832 L 394.891 206.832 L 394.891 205.067 L 395.891 205.067 L 395.891 206.832 L 397.188 206.832 L 397.188 207.707 L 395.891 207.707 L 395.891 211.707 C 395.891 211.947 395.943 212.145 396.047 212.301 C 396.151 212.457 396.318 212.535 396.547 212.535 C 396.818 212.535 397.042 212.447 397.219 212.27 L 397.516 213.02 C 397.235 213.291 396.834 213.426 396.313 213.426 Z M 402.95 213.27 L 402.95 212.364 C 402.7 212.645 402.372 212.895 401.966 213.114 C 401.57 213.322 401.132 213.426 400.653 213.426 C 399.288 213.426 398.606 212.744 398.606 211.379 L 398.606 206.832 L 399.606 206.832 L 399.606 211.067 C 399.606 211.577 399.721 211.952 399.95 212.192 C 400.179 212.421 400.544 212.535 401.044 212.535 C 401.44 212.535 401.809 212.442 402.153 212.254 C 402.497 212.056 402.762 211.827 402.95 211.567 L 402.95 206.832 L 403.95 206.832 L 403.95 213.27 L 402.95 213.27 Z M 405.95 213.27 L 405.95 206.832 L 406.95 206.832 L 406.95 207.879 C 407.544 207.088 408.257 206.692 409.091 206.692 L 409.091 207.723 L 408.7 207.692 C 408.398 207.692 408.065 207.801 407.7 208.02 C 407.335 208.228 407.085 208.457 406.95 208.707 L 406.95 213.27 L 405.95 213.27 Z M 413.254 213.426 C 412.286 213.426 411.494 213.114 410.879 212.489 C 410.275 211.853 409.973 211.041 409.973 210.051 C 409.973 209.093 410.275 208.291 410.879 207.645 C 411.484 206.999 412.239 206.676 413.145 206.676 C 414.072 206.676 414.817 206.999 415.379 207.645 C 415.952 208.28 416.239 209.108 416.239 210.129 L 416.239 210.379 L 411.02 210.379 C 411.062 211.035 411.301 211.572 411.739 211.989 C 412.176 212.395 412.713 212.598 413.348 212.598 C 414.129 212.598 414.791 212.327 415.333 211.785 L 415.817 212.442 C 415.161 213.098 414.307 213.426 413.254 213.426 Z M 415.254 209.645 C 415.254 209.051 415.057 208.546 414.661 208.129 C 414.275 207.713 413.765 207.504 413.129 207.504 C 412.536 207.504 412.041 207.713 411.645 208.129 C 411.249 208.546 411.041 209.051 411.02 209.645 L 415.254 209.645 Z M 422.524 213.27 L 422.524 212.317 C 422.274 212.64 421.961 212.905 421.586 213.114 C 421.211 213.322 420.795 213.426 420.336 213.426 C 419.482 213.426 418.789 213.124 418.258 212.52 C 417.737 211.905 417.477 211.082 417.477 210.051 C 417.477 209.02 417.743 208.202 418.274 207.598 C 418.805 206.983 419.493 206.676 420.336 206.676 C 420.774 206.676 421.18 206.775 421.555 206.973 C 421.941 207.171 422.263 207.447 422.524 207.801 L 422.524 204.379 L 423.508 204.379 L 423.508 213.27 L 422.524 213.27 Z M 420.586 212.535 C 420.982 212.535 421.357 212.442 421.711 212.254 C 422.066 212.056 422.336 211.811 422.524 211.52 L 422.524 208.598 C 422.336 208.317 422.066 208.077 421.711 207.879 C 421.357 207.671 420.982 207.567 420.586 207.567 C 419.961 207.567 419.461 207.796 419.086 208.254 C 418.711 208.702 418.524 209.301 418.524 210.051 C 418.524 210.791 418.706 211.39 419.071 211.848 C 419.446 212.306 419.951 212.535 420.586 212.535 Z" fill-rule="nonzero" clip-path="url(#g1faec474be9_0_363.0)"/>
    <path fill="#000000" d="M 369.351 229.426 C 368.434 229.426 367.71 229.051 367.179 228.301 L 367.179 231.723 L 366.179 231.723 L 366.179 222.832 L 367.179 222.832 L 367.179 223.785 C 367.408 223.463 367.71 223.197 368.085 222.989 C 368.471 222.78 368.893 222.676 369.351 222.676 C 370.215 222.676 370.908 222.978 371.429 223.582 C 371.95 224.186 372.21 225.009 372.21 226.051 C 372.21 227.082 371.95 227.905 371.429 228.52 C 370.919 229.124 370.226 229.426 369.351 229.426 Z M 369.101 228.535 C 369.715 228.535 370.21 228.311 370.585 227.864 C 370.971 227.405 371.163 226.801 371.163 226.051 C 371.163 225.311 370.976 224.713 370.601 224.254 C 370.226 223.796 369.726 223.567 369.101 223.567 C 368.695 223.567 368.314 223.666 367.96 223.864 C 367.617 224.061 367.356 224.306 367.179 224.598 L 367.179 227.504 C 367.356 227.785 367.617 228.03 367.96 228.239 C 368.314 228.436 368.695 228.535 369.101 228.535 Z M 373.803 229.27 L 373.803 222.832 L 374.803 222.832 L 374.803 223.879 C 375.396 223.088 376.11 222.692 376.943 222.692 L 376.943 223.723 L 376.553 223.692 C 376.251 223.692 375.917 223.801 375.553 224.02 C 375.188 224.228 374.938 224.457 374.803 224.707 L 374.803 229.27 L 373.803 229.27 Z M 382.545 229.27 L 382.545 228.364 C 382.295 228.645 381.967 228.895 381.56 229.114 C 381.164 229.322 380.727 229.426 380.248 229.426 C 378.883 229.426 378.201 228.744 378.201 227.379 L 378.201 222.832 L 379.201 222.832 L 379.201 227.067 C 379.201 227.577 379.316 227.952 379.545 228.192 C 379.774 228.421 380.138 228.535 380.638 228.535 C 381.034 228.535 381.404 228.442 381.748 228.254 C 382.092 228.056 382.357 227.827 382.545 227.567 L 382.545 222.832 L 383.545 222.832 L 383.545 229.27 L 382.545 229.27 Z M 389.888 229.27 L 389.888 225.051 C 389.888 224.489 389.758 224.103 389.498 223.895 C 389.237 223.676 388.888 223.567 388.451 223.567 C 388.076 223.567 387.706 223.666 387.342 223.864 C 386.987 224.061 386.722 224.296 386.545 224.567 L 386.545 229.27 L 385.545 229.27 L 385.545 222.832 L 386.545 222.832 L 386.545 223.77 C 386.816 223.447 387.154 223.186 387.56 222.989 C 387.967 222.78 388.394 222.676 388.842 222.676 C 390.206 222.676 390.888 223.369 390.888 224.754 L 390.888 229.27 L 389.888 229.27 Z M 393.388 221.91 C 393.201 221.91 393.04 221.848 392.904 221.723 C 392.779 221.588 392.717 221.426 392.717 221.239 C 392.717 221.061 392.779 220.905 392.904 220.77 C 393.04 220.634 393.201 220.567 393.388 220.567 C 393.566 220.567 393.722 220.634 393.857 220.77 C 393.993 220.905 394.06 221.061 394.06 221.239 C 394.06 221.426 393.993 221.588 393.857 221.723 C 393.722 221.848 393.566 221.91 393.388 221.91 Z M 392.888 229.27 L 392.888 222.832 L 393.888 222.832 L 393.888 229.27 L 392.888 229.27 Z M 400.231 229.27 L 400.231 225.051 C 400.231 224.489 400.101 224.103 399.84 223.895 C 399.58 223.676 399.231 223.567 398.794 223.567 C 398.419 223.567 398.049 223.666 397.684 223.864 C 397.33 224.061 397.064 224.296 396.887 224.567 L 396.887 229.27 L 395.887 229.27 L 395.887 222.832 L 396.887 222.832 L 396.887 223.77 C 397.158 223.447 397.497 223.186 397.903 222.989 C 398.309 222.78 398.736 222.676 399.184 222.676 C 400.549 222.676 401.231 223.369 401.231 224.754 L 401.231 229.27 L 400.231 229.27 Z M 405.809 231.879 C 405.268 231.879 404.794 231.811 404.387 231.676 C 403.991 231.551 403.601 231.301 403.215 230.926 L 403.731 230.176 C 403.991 230.499 404.288 230.723 404.622 230.848 C 404.955 230.983 405.351 231.051 405.809 231.051 C 406.476 231.051 406.986 230.879 407.34 230.535 C 407.705 230.202 407.887 229.733 407.887 229.129 L 407.887 228.207 C 407.648 228.53 407.34 228.801 406.965 229.02 C 406.59 229.239 406.174 229.348 405.715 229.348 C 404.851 229.348 404.158 229.041 403.637 228.426 C 403.116 227.811 402.856 227.009 402.856 226.02 C 402.856 224.989 403.122 224.176 403.653 223.582 C 404.184 222.978 404.872 222.676 405.715 222.676 C 406.611 222.676 407.335 223.051 407.887 223.801 L 407.887 222.832 L 408.887 222.832 L 408.887 229.082 C 408.887 229.989 408.616 230.681 408.075 231.16 C 407.544 231.64 406.788 231.879 405.809 231.879 Z M 405.965 228.473 C 406.33 228.473 406.689 228.374 407.044 228.176 C 407.408 227.978 407.689 227.723 407.887 227.41 L 407.887 224.598 C 407.689 224.296 407.408 224.051 407.044 223.864 C 406.679 223.666 406.32 223.567 405.965 223.567 C 405.33 223.567 404.825 223.796 404.45 224.254 C 404.085 224.702 403.903 225.291 403.903 226.02 C 403.903 226.759 404.09 227.353 404.465 227.801 C 404.851 228.249 405.351 228.473 405.965 228.473 Z" fill-rule="nonzero" clip-path="url(#g1faec474be9_0_363.0)"/>
    <path fill="#000000" fill-opacity="0.0" d="M 525.294 204.092 L 602.459 204.092 L 602.459 228.848 L 525.294 228.848 L 525.294 204.092 Z" fill-rule="evenodd" clip-path="url(#g1faec474be9_0_363.0)"/>
    <path fill="#000000" d="M 532.388 213.426 C 531.44 213.426 530.664 213.108 530.06 212.473 C 529.466 211.827 529.169 211.02 529.169 210.051 C 529.169 209.082 529.466 208.28 530.06 207.645 C 530.664 206.999 531.44 206.676 532.388 206.676 C 533.377 206.676 534.164 207.046 534.747 207.785 L 534.075 208.41 C 533.669 207.848 533.122 207.567 532.435 207.567 C 531.778 207.567 531.242 207.796 530.825 208.254 C 530.419 208.713 530.216 209.311 530.216 210.051 C 530.216 210.791 530.419 211.39 530.825 211.848 C 531.231 212.306 531.768 212.535 532.435 212.535 C 533.112 212.535 533.658 212.254 534.075 211.692 L 534.747 212.317 C 534.164 213.056 533.377 213.426 532.388 213.426 Z M 538.954 213.426 C 538.016 213.426 537.251 213.108 536.657 212.473 C 536.063 211.838 535.766 211.03 535.766 210.051 C 535.766 209.051 536.063 208.239 536.657 207.614 C 537.251 206.989 538.016 206.676 538.954 206.676 C 539.891 206.676 540.657 206.989 541.251 207.614 C 541.844 208.239 542.141 209.051 542.141 210.051 C 542.141 211.03 541.844 211.838 541.251 212.473 C 540.657 213.108 539.891 213.426 538.954 213.426 Z M 538.954 212.535 C 539.579 212.535 540.089 212.306 540.485 211.848 C 540.881 211.379 541.079 210.78 541.079 210.051 C 541.079 209.322 540.881 208.728 540.485 208.27 C 540.089 207.801 539.579 207.567 538.954 207.567 C 538.329 207.567 537.813 207.801 537.407 208.27 C 537.011 208.728 536.813 209.322 536.813 210.051 C 536.813 210.78 537.011 211.379 537.407 211.848 C 537.803 212.306 538.318 212.535 538.954 212.535 Z M 548.109 213.27 L 548.109 209.051 C 548.109 208.489 547.978 208.103 547.718 207.895 C 547.458 207.676 547.109 207.567 546.671 207.567 C 546.296 207.567 545.926 207.666 545.562 207.864 C 545.208 208.061 544.942 208.296 544.765 208.567 L 544.765 213.27 L 543.765 213.27 L 543.765 206.832 L 544.765 206.832 L 544.765 207.77 C 545.036 207.447 545.374 207.186 545.781 206.989 C 546.187 206.78 546.614 206.676 547.062 206.676 C 548.426 206.676 549.109 207.369 549.109 208.754 L 549.109 213.27 L 548.109 213.27 Z M 553.14 213.426 C 552.057 213.426 551.192 213.088 550.546 212.41 L 551.062 211.692 C 551.281 211.942 551.577 212.16 551.952 212.348 C 552.327 212.525 552.739 212.614 553.187 212.614 C 553.687 212.614 554.062 212.509 554.312 212.301 C 554.572 212.093 554.702 211.827 554.702 211.504 C 554.702 211.223 554.562 211.004 554.281 210.848 C 554.01 210.681 553.489 210.504 552.718 210.317 C 552.072 210.192 551.577 209.983 551.234 209.692 C 550.89 209.4 550.718 209.009 550.718 208.52 C 550.718 207.978 550.937 207.535 551.374 207.192 C 551.812 206.848 552.395 206.676 553.124 206.676 C 554.093 206.676 554.885 206.983 555.499 207.598 L 555.046 208.301 C 554.848 208.072 554.583 207.879 554.249 207.723 C 553.916 207.567 553.541 207.489 553.124 207.489 C 552.676 207.489 552.327 207.588 552.077 207.785 C 551.827 207.973 551.702 208.213 551.702 208.504 C 551.702 208.754 551.843 208.957 552.124 209.114 C 552.406 209.259 552.926 209.416 553.687 209.582 C 554.343 209.728 554.838 209.957 555.171 210.27 C 555.515 210.572 555.687 210.978 555.687 211.489 C 555.687 212.082 555.452 212.556 554.984 212.91 C 554.525 213.254 553.911 213.426 553.14 213.426 Z M 558.931 213.426 C 557.983 213.426 557.509 212.926 557.509 211.926 L 557.509 207.707 L 556.447 207.707 L 556.447 206.832 L 557.509 206.832 L 557.509 205.067 L 558.509 205.067 L 558.509 206.832 L 559.806 206.832 L 559.806 207.707 L 558.509 207.707 L 558.509 211.707 C 558.509 211.947 558.561 212.145 558.666 212.301 C 558.77 212.457 558.936 212.535 559.166 212.535 C 559.436 212.535 559.66 212.447 559.838 212.27 L 560.134 213.02 C 559.853 213.291 559.452 213.426 558.931 213.426 Z M 561.756 213.41 C 561.548 213.41 561.371 213.338 561.225 213.192 C 561.089 213.046 561.022 212.874 561.022 212.676 C 561.022 212.468 561.089 212.296 561.225 212.16 C 561.371 212.015 561.548 211.942 561.756 211.942 C 561.964 211.942 562.136 212.015 562.272 212.16 C 562.417 212.296 562.49 212.468 562.49 212.676 C 562.49 212.874 562.417 213.046 562.272 213.192 C 562.136 213.338 561.964 213.41 561.756 213.41 Z M 568.01 213.27 L 568.01 207.707 L 566.948 207.707 L 566.948 206.832 L 568.01 206.832 L 568.01 206.332 C 568.01 205.666 568.177 205.155 568.51 204.801 C 568.843 204.436 569.297 204.254 569.869 204.254 C 570.411 204.254 570.864 204.416 571.229 204.739 L 570.823 205.395 C 570.593 205.176 570.328 205.067 570.026 205.067 C 569.349 205.067 569.01 205.489 569.01 206.332 L 569.01 206.832 L 570.307 206.832 L 570.307 207.707 L 569.01 207.707 L 569.01 213.27 L 568.01 213.27 Z M 575.532 213.27 L 575.532 212.535 C 574.99 213.129 574.277 213.426 573.391 213.426 C 572.745 213.426 572.209 213.223 571.782 212.817 C 571.355 212.41 571.141 211.905 571.141 211.301 C 571.141 210.676 571.35 210.166 571.766 209.77 C 572.193 209.374 572.735 209.176 573.391 209.176 C 574.318 209.176 575.032 209.468 575.532 210.051 L 575.532 208.895 C 575.532 208.457 575.376 208.124 575.063 207.895 C 574.761 207.655 574.376 207.535 573.907 207.535 C 573.147 207.535 572.485 207.832 571.923 208.426 L 571.454 207.739 C 572.141 207.03 573.001 206.676 574.032 206.676 C 574.824 206.676 575.438 206.869 575.876 207.254 C 576.313 207.629 576.532 208.16 576.532 208.848 L 576.532 213.27 L 575.532 213.27 Z M 573.751 212.707 C 574.542 212.707 575.136 212.442 575.532 211.91 L 575.532 210.692 C 575.136 210.16 574.542 209.895 573.751 209.895 C 573.282 209.895 572.902 210.03 572.61 210.301 C 572.318 210.561 572.173 210.9 572.173 211.317 C 572.173 211.723 572.318 212.056 572.61 212.317 C 572.902 212.577 573.282 212.707 573.751 212.707 Z M 582.868 213.27 L 582.868 209.051 C 582.868 208.489 582.738 208.103 582.478 207.895 C 582.217 207.676 581.868 207.567 581.431 207.567 C 581.056 207.567 580.686 207.666 580.321 207.864 C 579.967 208.061 579.702 208.296 579.525 208.567 L 579.525 213.27 L 578.525 213.27 L 578.525 206.832 L 579.525 206.832 L 579.525 207.77 C 579.795 207.447 580.134 207.186 580.54 206.989 C 580.946 206.78 581.374 206.676 581.821 206.676 C 583.186 206.676 583.868 207.369 583.868 208.754 L 583.868 213.27 L 582.868 213.27 Z M 585.275 210.489 L 585.275 209.598 L 588.462 209.598 L 588.462 210.489 L 585.275 210.489 Z M 590.367 205.91 C 590.179 205.91 590.018 205.848 589.882 205.723 C 589.757 205.588 589.695 205.426 589.695 205.239 C 589.695 205.061 589.757 204.905 589.882 204.77 C 590.018 204.634 590.179 204.567 590.367 204.567 C 590.544 204.567 590.7 204.634 590.836 204.77 C 590.971 204.905 591.039 205.061 591.039 205.239 C 591.039 205.426 590.971 205.588 590.836 205.723 C 590.7 205.848 590.544 205.91 590.367 205.91 Z M 589.867 213.27 L 589.867 206.832 L 590.867 206.832 L 590.867 213.27 L 589.867 213.27 Z M 597.209 213.27 L 597.209 209.051 C 597.209 208.489 597.079 208.103 596.819 207.895 C 596.558 207.676 596.209 207.567 595.772 207.567 C 595.397 207.567 595.027 207.666 594.662 207.864 C 594.308 208.061 594.043 208.296 593.866 208.567 L 593.866 213.27 L 592.866 213.27 L 592.866 206.832 L 593.866 206.832 L 593.866 207.77 C 594.136 207.447 594.475 207.186 594.881 206.989 C 595.287 206.78 595.715 206.676 596.162 206.676 C 597.527 206.676 598.209 207.369 598.209 208.754 L 598.209 213.27 L 597.209 213.27 Z" fill-rule="nonzero" clip-path="url(#g1faec474be9_0_363.0)"/>
    <path fill="#000000" d="M 545.697 229.426 C 544.781 229.426 544.057 229.051 543.525 228.301 L 543.525 231.723 L 542.525 231.723 L 542.525 222.832 L 543.525 222.832 L 543.525 223.785 C 543.755 223.463 544.057 223.197 544.432 222.989 C 544.817 222.78 545.239 222.676 545.697 222.676 C 546.562 222.676 547.255 222.978 547.775 223.582 C 548.296 224.186 548.557 225.009 548.557 226.051 C 548.557 227.082 548.296 227.905 547.775 228.52 C 547.265 229.124 546.572 229.426 545.697 229.426 Z M 545.447 228.535 C 546.062 228.535 546.557 228.311 546.932 227.864 C 547.317 227.405 547.51 226.801 547.51 226.051 C 547.51 225.311 547.322 224.713 546.947 224.254 C 546.572 223.796 546.072 223.567 545.447 223.567 C 545.041 223.567 544.661 223.666 544.307 223.864 C 543.963 224.061 543.703 224.306 543.525 224.598 L 543.525 227.504 C 543.703 227.785 543.963 228.03 544.307 228.239 C 544.661 228.436 545.041 228.535 545.447 228.535 Z M 550.149 229.27 L 550.149 222.832 L 551.149 222.832 L 551.149 223.879 C 551.743 223.088 552.456 222.692 553.29 222.692 L 553.29 223.723 L 552.899 223.692 C 552.597 223.692 552.264 223.801 551.899 224.02 C 551.534 224.228 551.284 224.457 551.149 224.707 L 551.149 229.27 L 550.149 229.27 Z M 558.891 229.27 L 558.891 228.364 C 558.641 228.645 558.313 228.895 557.907 229.114 C 557.511 229.322 557.073 229.426 556.594 229.426 C 555.23 229.426 554.547 228.744 554.547 227.379 L 554.547 222.832 L 555.547 222.832 L 555.547 227.067 C 555.547 227.577 555.662 227.952 555.891 228.192 C 556.12 228.421 556.485 228.535 556.985 228.535 C 557.381 228.535 557.75 228.442 558.094 228.254 C 558.438 228.056 558.704 227.827 558.891 227.567 L 558.891 222.832 L 559.891 222.832 L 559.891 229.27 L 558.891 229.27 Z M 566.235 229.27 L 566.235 225.051 C 566.235 224.489 566.105 224.103 565.844 223.895 C 565.584 223.676 565.235 223.567 564.797 223.567 C 564.422 223.567 564.053 223.666 563.688 223.864 C 563.334 224.061 563.068 224.296 562.891 224.567 L 562.891 229.27 L 561.891 229.27 L 561.891 222.832 L 562.891 222.832 L 562.891 223.77 C 563.162 223.447 563.501 223.186 563.907 222.989 C 564.313 222.78 564.74 222.676 565.188 222.676 C 566.553 222.676 567.235 223.369 567.235 224.754 L 567.235 229.27 L 566.235 229.27 Z M 569.735 221.91 C 569.547 221.91 569.386 221.848 569.251 221.723 C 569.126 221.588 569.063 221.426 569.063 221.239 C 569.063 221.061 569.126 220.905 569.251 220.77 C 569.386 220.634 569.547 220.567 569.735 220.567 C 569.912 220.567 570.068 220.634 570.204 220.77 C 570.339 220.905 570.407 221.061 570.407 221.239 C 570.407 221.426 570.339 221.588 570.204 221.723 C 570.068 221.848 569.912 221.91 569.735 221.91 Z M 569.235 229.27 L 569.235 222.832 L 570.235 222.832 L 570.235 229.27 L 569.235 229.27 Z M 576.577 229.27 L 576.577 225.051 C 576.577 224.489 576.447 224.103 576.187 223.895 C 575.926 223.676 575.577 223.567 575.14 223.567 C 574.765 223.567 574.395 223.666 574.031 223.864 C 573.676 224.061 573.411 224.296 573.234 224.567 L 573.234 229.27 L 572.234 229.27 L 572.234 222.832 L 573.234 222.832 L 573.234 223.77 C 573.505 223.447 573.843 223.186 574.249 222.989 C 574.656 222.78 575.083 222.676 575.531 222.676 C 576.895 222.676 577.577 223.369 577.577 224.754 L 577.577 229.27 L 576.577 229.27 Z M 582.156 231.879 C 581.614 231.879 581.14 231.811 580.734 231.676 C 580.338 231.551 579.947 231.301 579.562 230.926 L 580.077 230.176 C 580.338 230.499 580.635 230.723 580.968 230.848 C 581.301 230.983 581.697 231.051 582.156 231.051 C 582.822 231.051 583.333 230.879 583.687 230.535 C 584.051 230.202 584.234 229.733 584.234 229.129 L 584.234 228.207 C 583.994 228.53 583.687 228.801 583.312 229.02 C 582.937 229.239 582.52 229.348 582.062 229.348 C 581.197 229.348 580.505 229.041 579.984 228.426 C 579.463 227.811 579.202 227.009 579.202 226.02 C 579.202 224.989 579.468 224.176 579.999 223.582 C 580.531 222.978 581.218 222.676 582.062 222.676 C 582.958 222.676 583.682 223.051 584.234 223.801 L 584.234 222.832 L 585.234 222.832 L 585.234 229.082 C 585.234 229.989 584.963 230.681 584.421 231.16 C 583.89 231.64 583.135 231.879 582.156 231.879 Z M 582.312 228.473 C 582.676 228.473 583.036 228.374 583.39 228.176 C 583.755 227.978 584.036 227.723 584.234 227.41 L 584.234 224.598 C 584.036 224.296 583.755 224.051 583.39 223.864 C 583.025 223.666 582.666 223.567 582.312 223.567 C 581.676 223.567 581.171 223.796 580.796 224.254 C 580.432 224.702 580.249 225.291 580.249 226.02 C 580.249 226.759 580.437 227.353 580.812 227.801 C 581.197 228.249 581.697 228.473 582.312 228.473 Z" fill-rule="nonzero" clip-path="url(#g1faec474be9_0_363.0)"/>
    <path fill="#000000" fill-opacity="0.0" d="M 641.776 295.714 C 641.776 304.228 648.678 311.13 657.192 311.13 C 661.281 311.13 665.202 309.506 668.093 306.615 C 670.985 303.724 672.609 299.803 672.609 295.714 C 672.609 287.2 665.707 280.298 657.192 280.298 C 648.678 280.298 641.776 287.2 641.776 295.714 Z" fill-rule="evenodd" clip-path="url(#g1faec474be9_0_363.0)"/>
    <path stroke="#ffab40" stroke-width="2.0" stroke-linejoin="round" stroke-linecap="butt" d="M 641.776 295.714 C 641.776 304.228 648.678 311.13 657.192 311.13 C 661.281 311.13 665.202 309.506 668.093 306.615 C 670.985 303.724 672.609 299.803 672.609 295.714 C 672.609 287.2 665.707 280.298 657.192 280.298 C 648.678 280.298 641.776 287.2 641.776 295.714 Z" fill-rule="evenodd" clip-path="url(#g1faec474be9_0_363.0)"/>
    <path fill="#000000" fill-opacity="0.0" d="M 710.037 295.714 C 710.037 304.228 716.939 311.13 725.453 311.13 C 729.542 311.13 733.463 309.506 736.354 306.615 C 739.245 303.724 740.869 299.803 740.869 295.714 C 740.869 287.2 733.967 280.298 725.453 280.298 C 716.939 280.298 710.037 287.2 710.037 295.714 Z" fill-rule="evenodd" clip-path="url(#g1faec474be9_0_363.0)"/>
    <path stroke="#ffab40" stroke-width="2.0" stroke-linejoin="round" stroke-linecap="butt" d="M 710.037 295.714 C 710.037 304.228 716.939 311.13 725.453 311.13 C 729.542 311.13 733.463 309.506 736.354 306.615 C 739.245 303.724 740.869 299.803 740.869 295.714 C 740.869 287.2 733.967 280.298 725.453 280.298 C 716.939 280.298 710.037 287.2 710.037 295.714 Z" fill-rule="evenodd" clip-path="url(#g1faec474be9_0_363.0)"/>
    <path fill="#000000" fill-opacity="0.0" d="M 573.516 295.714 C 573.516 304.228 580.418 311.13 588.932 311.13 C 593.021 311.13 596.942 309.506 599.833 306.615 C 602.724 303.724 604.348 299.803 604.348 295.714 C 604.348 287.2 597.446 280.298 588.932 280.298 C 580.418 280.298 573.516 287.2 573.516 295.714 Z" fill-rule="evenodd" clip-path="url(#g1faec474be9_0_363.0)"/>
    <path stroke="#ffab40" stroke-width="2.0" stroke-linejoin="round" stroke-linecap="butt" d="M 573.516 295.714 C 573.516 304.228 580.418 311.13 588.932 311.13 C 593.021 311.13 596.942 309.506 599.833 306.615 C 602.724 303.724 604.348 299.803 604.348 295.714 C 604.348 287.2 597.446 280.298 588.932 280.298 C 580.418 280.298 573.516 287.2 573.516 295.714 Z" fill-rule="evenodd" clip-path="url(#g1faec474be9_0_363.0)"/>
    <path fill="#000000" fill-opacity="0.0" d="M 588.932 280.298 L 620.937 204.467" fill-rule="evenodd" clip-path="url(#g1faec474be9_0_363.0)"/>
    <path stroke="#ffab40" stroke-width="2.0" stroke-linejoin="round" stroke-linecap="butt" d="M 588.932 280.298 L 620.937 204.467" fill-rule="evenodd" clip-path="url(#g1faec474be9_0_363.0)"/>
    <path fill="#000000" fill-opacity="0.0" d="M 725.453 280.298 L 693.448 204.467" fill-rule="evenodd" clip-path="url(#g1faec474be9_0_363.0)"/>
    <path stroke="#ffab40" stroke-width="2.0" stroke-linejoin="round" stroke-linecap="butt" d="M 725.453 280.298 L 693.448 204.467" fill-rule="evenodd" clip-path="url(#g1faec474be9_0_363.0)"/>
    <path fill="#000000" fill-opacity="0.0" fill-rule="evenodd" clip-path="url(#g1faec474be9_0_363.0)"/>
    <path stroke="#000000" stroke-width="1.0" stroke-linejoin="round" stroke-linecap="butt" fill-rule="evenodd" clip-path="url(#g1faec474be9_0_363.0)"/>
    <path fill="#000000" fill-opacity="0.0" fill-rule="evenodd" clip-path="url(#g1faec474be9_0_363.0)"/>
    <path stroke="#000000" stroke-width="1.0" stroke-linejoin="round" stroke-linecap="butt" fill-rule="evenodd" clip-path="url(#g1faec474be9_0_363.0)"/>
    <path fill="#000000" fill-opacity="0.0" d="M 657.193 280.298 L 620.933 204.467" fill-rule="evenodd" clip-path="url(#g1faec474be9_0_363.0)"/>
    <path stroke="#b7b7b7" stroke-width="1.0" stroke-linejoin="round" stroke-linecap="butt" stroke-dasharray="4.0,3.0" d="M 657.193 280.298 L 620.933 204.467" fill-rule="evenodd" clip-path="url(#g1faec474be9_0_363.0)"/>
    <path fill="#000000" fill-opacity="0.0" d="M 657.193 280.298 L 693.452 204.467" fill-rule="evenodd" clip-path="url(#g1faec474be9_0_363.0)"/>
    <path stroke="#ffab40" stroke-width="2.0" stroke-linejoin="round" stroke-linecap="butt" d="M 657.193 280.298 L 693.452 204.467" fill-rule="evenodd" clip-path="url(#g1faec474be9_0_363.0)"/>
    <path fill="#000000" fill-opacity="0.0" d="M 588.932 280.298 L 693.457 204.467" fill-rule="evenodd" clip-path="url(#g1faec474be9_0_363.0)"/>
    <path stroke="#b7b7b7" stroke-width="1.0" stroke-linejoin="round" stroke-linecap="butt" stroke-dasharray="4.0,3.0" d="M 588.932 280.298 L 693.457 204.467" fill-rule="evenodd" clip-path="url(#g1faec474be9_0_363.0)"/>
    <path fill="#000000" fill-opacity="0.0" d="M 725.453 280.298 L 620.928 204.467" fill-rule="evenodd" clip-path="url(#g1faec474be9_0_363.0)"/>
    <path stroke="#b7b7b7" stroke-width="2.0" stroke-linejoin="round" stroke-linecap="butt" d="M 725.453 280.298 L 620.928 204.467" fill-rule="evenodd" clip-path="url(#g1faec474be9_0_363.0)"/>
    <path fill="#000000" fill-opacity="0.0" d="M 678.037 189.061 C 678.037 197.575 684.939 204.477 693.453 204.477 C 697.542 204.477 701.463 202.853 704.354 199.962 C 707.245 197.071 708.869 193.149 708.869 189.061 C 708.869 180.547 701.967 173.645 693.453 173.645 C 684.939 173.645 678.037 180.547 678.037 189.061 Z" fill-rule="evenodd" clip-path="url(#g1faec474be9_0_363.0)"/>
    <path stroke="#ffab40" stroke-width="2.0" stroke-linejoin="round" stroke-linecap="butt" d="M 678.037 189.061 C 678.037 197.575 684.939 204.477 693.453 204.477 C 697.542 204.477 701.463 202.853 704.354 199.962 C 707.245 197.071 708.869 193.149 708.869 189.061 C 708.869 180.547 701.967 173.645 693.453 173.645 C 684.939 173.645 678.037 180.547 678.037 189.061 Z" fill-rule="evenodd" clip-path="url(#g1faec474be9_0_363.0)"/>
    <path fill="#000000" fill-opacity="0.0" d="M 605.516 189.061 C 605.516 197.575 612.418 204.477 620.932 204.477 C 625.021 204.477 628.942 202.853 631.833 199.962 C 634.724 197.071 636.348 193.149 636.348 189.061 C 636.348 180.547 629.446 173.645 620.932 173.645 C 612.418 173.645 605.516 180.547 605.516 189.061 Z" fill-rule="evenodd" clip-path="url(#g1faec474be9_0_363.0)"/>
    <path stroke="#ffab40" stroke-width="2.0" stroke-linejoin="round" stroke-linecap="butt" d="M 605.516 189.061 C 605.516 197.575 612.418 204.477 620.932 204.477 C 625.021 204.477 628.942 202.853 631.833 199.962 C 634.724 197.071 636.348 193.149 636.348 189.061 C 636.348 180.547 629.446 173.645 620.932 173.645 C 612.418 173.645 605.516 180.547 605.516 189.061 Z" fill-rule="evenodd" clip-path="url(#g1faec474be9_0_363.0)"/>
    <path fill="#000000" fill-opacity="0.0" d="M 413.323 270 L 473.228 270 L 473.228 286.441 L 413.323 286.441 L 413.323 270 Z" fill-rule="evenodd" clip-path="url(#g1faec474be9_0_363.0)"/>
    <path fill="#595959" d="M 428.605 282.061 L 428.605 274.951 L 429.402 274.951 L 429.402 282.061 L 428.605 282.061 Z M 434.221 282.061 L 434.221 281.467 C 433.794 281.946 433.226 282.186 432.518 282.186 C 431.997 282.186 431.565 282.024 431.221 281.701 C 430.888 281.368 430.721 280.962 430.721 280.482 C 430.721 279.982 430.888 279.576 431.221 279.264 C 431.565 278.951 431.997 278.795 432.518 278.795 C 433.258 278.795 433.825 279.029 434.221 279.498 L 434.221 278.561 C 434.221 278.217 434.096 277.951 433.846 277.764 C 433.607 277.576 433.299 277.482 432.924 277.482 C 432.32 277.482 431.794 277.717 431.346 278.186 L 430.971 277.639 C 431.523 277.066 432.211 276.779 433.034 276.779 C 433.659 276.779 434.143 276.936 434.487 277.248 C 434.841 277.55 435.018 277.977 435.018 278.529 L 435.018 282.061 L 434.221 282.061 Z M 432.799 281.607 C 433.435 281.607 433.909 281.394 434.221 280.967 L 434.221 279.998 C 433.909 279.571 433.435 279.357 432.799 279.357 C 432.424 279.357 432.117 279.467 431.877 279.686 C 431.648 279.894 431.534 280.165 431.534 280.498 C 431.534 280.821 431.648 281.087 431.877 281.295 C 432.117 281.503 432.424 281.607 432.799 281.607 Z M 436.462 283.357 C 436.577 283.409 436.723 283.436 436.9 283.436 C 437.077 283.436 437.223 283.399 437.337 283.326 C 437.462 283.253 437.571 283.107 437.665 282.889 L 438.009 282.107 L 435.853 276.92 L 436.712 276.92 L 438.431 281.139 L 440.134 276.92 L 441.009 276.92 L 438.431 283.107 C 438.15 283.784 437.644 284.133 436.915 284.154 C 436.707 284.154 436.514 284.128 436.337 284.076 L 436.462 283.357 Z M 444.168 282.186 C 443.387 282.186 442.751 281.936 442.262 281.436 C 441.783 280.925 441.543 280.274 441.543 279.482 C 441.543 278.722 441.783 278.081 442.262 277.561 C 442.751 277.04 443.356 276.779 444.074 276.779 C 444.814 276.779 445.413 277.04 445.871 277.561 C 446.33 278.071 446.559 278.732 446.559 279.545 L 446.559 279.748 L 442.387 279.748 C 442.418 280.269 442.606 280.696 442.949 281.029 C 443.304 281.363 443.736 281.529 444.246 281.529 C 444.871 281.529 445.397 281.311 445.824 280.873 L 446.215 281.404 C 445.684 281.925 445.001 282.186 444.168 282.186 Z M 445.762 279.154 C 445.762 278.686 445.606 278.284 445.293 277.951 C 444.981 277.618 444.574 277.451 444.074 277.451 C 443.595 277.451 443.194 277.618 442.871 277.951 C 442.559 278.284 442.397 278.686 442.387 279.154 L 445.762 279.154 Z M 447.839 282.061 L 447.839 276.92 L 448.636 276.92 L 448.636 277.748 C 449.116 277.123 449.688 276.811 450.355 276.811 L 450.355 277.623 L 450.043 277.592 C 449.793 277.592 449.522 277.68 449.23 277.857 C 448.949 278.034 448.751 278.222 448.636 278.42 L 448.636 282.061 L 447.839 282.061 Z M 454.137 282.061 L 454.137 274.951 L 455.027 274.951 L 455.027 281.279 L 458.324 281.279 L 458.324 282.061 L 454.137 282.061 Z" fill-rule="nonzero" clip-path="url(#g1faec474be9_0_363.0)"/>
    <path fill="#000000" fill-opacity="0.0" d="M 447.706 179.063 L 507.612 179.063 L 507.612 195.504 L 447.706 195.504 L 447.706 179.063 Z" fill-rule="evenodd" clip-path="url(#g1faec474be9_0_363.0)"/>
    <path fill="#595959" d="M 467.08 184.723 L 467.08 177.614 L 467.877 177.614 L 467.877 184.723 L 467.08 184.723 Z M 472.696 184.723 L 472.696 184.13 C 472.269 184.609 471.702 184.848 470.993 184.848 C 470.472 184.848 470.04 184.687 469.696 184.364 C 469.363 184.031 469.196 183.625 469.196 183.145 C 469.196 182.645 469.363 182.239 469.696 181.927 C 470.04 181.614 470.472 181.458 470.993 181.458 C 471.733 181.458 472.301 181.692 472.696 182.161 L 472.696 181.223 C 472.696 180.88 472.571 180.614 472.321 180.427 C 472.082 180.239 471.775 180.145 471.4 180.145 C 470.795 180.145 470.269 180.38 469.821 180.848 L 469.446 180.302 C 469.999 179.729 470.686 179.442 471.509 179.442 C 472.134 179.442 472.618 179.598 472.962 179.911 C 473.316 180.213 473.493 180.64 473.493 181.192 L 473.493 184.723 L 472.696 184.723 Z M 471.275 184.27 C 471.91 184.27 472.384 184.057 472.696 183.63 L 472.696 182.661 C 472.384 182.234 471.91 182.02 471.275 182.02 C 470.9 182.02 470.592 182.13 470.353 182.348 C 470.124 182.557 470.009 182.828 470.009 183.161 C 470.009 183.484 470.124 183.75 470.353 183.958 C 470.592 184.166 470.9 184.27 471.275 184.27 Z M 474.937 186.02 C 475.052 186.072 475.198 186.098 475.375 186.098 C 475.552 186.098 475.698 186.062 475.812 185.989 C 475.937 185.916 476.047 185.77 476.14 185.552 L 476.484 184.77 L 474.328 179.583 L 475.187 179.583 L 476.906 183.802 L 478.609 179.583 L 479.484 179.583 L 476.906 185.77 C 476.625 186.447 476.12 186.796 475.39 186.817 C 475.182 186.817 474.989 186.791 474.812 186.739 L 474.937 186.02 Z M 482.643 184.848 C 481.862 184.848 481.227 184.598 480.737 184.098 C 480.258 183.588 480.018 182.937 480.018 182.145 C 480.018 181.385 480.258 180.744 480.737 180.223 C 481.227 179.703 481.831 179.442 482.55 179.442 C 483.289 179.442 483.888 179.703 484.346 180.223 C 484.805 180.734 485.034 181.395 485.034 182.208 L 485.034 182.411 L 480.862 182.411 C 480.893 182.932 481.081 183.359 481.425 183.692 C 481.779 184.026 482.211 184.192 482.721 184.192 C 483.346 184.192 483.873 183.973 484.3 183.536 L 484.69 184.067 C 484.159 184.588 483.477 184.848 482.643 184.848 Z M 484.237 181.817 C 484.237 181.348 484.081 180.947 483.768 180.614 C 483.456 180.281 483.05 180.114 482.55 180.114 C 482.07 180.114 481.669 180.281 481.346 180.614 C 481.034 180.947 480.873 181.348 480.862 181.817 L 484.237 181.817 Z M 486.315 184.723 L 486.315 179.583 L 487.112 179.583 L 487.112 180.411 C 487.591 179.786 488.164 179.473 488.83 179.473 L 488.83 180.286 L 488.518 180.255 C 488.268 180.255 487.997 180.343 487.705 180.52 C 487.424 180.697 487.226 180.885 487.112 181.083 L 487.112 184.723 L 486.315 184.723 Z" fill-rule="nonzero" clip-path="url(#g1faec474be9_0_363.0)"/>
    <path fill="#595959" d="M 471.305 197.523 L 471.305 190.414 L 472.195 190.414 L 472.195 196.742 L 475.492 196.742 L 475.492 197.523 L 471.305 197.523 Z M 478.88 194.211 L 478.88 196.477 L 478.271 196.477 L 478.271 194.211 L 476.224 194.211 L 476.224 193.648 L 478.271 193.648 L 478.271 191.445 L 478.88 191.445 L 478.88 193.648 L 480.927 193.648 L 480.927 194.211 L 478.88 194.211 Z M 483.119 197.523 L 483.119 191.586 L 481.979 192.789 L 481.447 192.242 L 483.229 190.414 L 484.01 190.414 L 484.01 197.523 L 483.119 197.523 Z" fill-rule="nonzero" clip-path="url(#g1faec474be9_0_363.0)"/>
    <path fill="#d9d9d9" d="M 737.921 327.875 L 737.921 351.403 L 713.575 351.403 L 713.575 327.875 L 737.921 327.875 Z" fill-rule="evenodd" clip-path="url(#g1faec474be9_0_363.0)"/>
    <path stroke="#ffffff" stroke-width="1.0" stroke-linejoin="round" stroke-linecap="butt" d="M 737.921 327.875 L 737.921 351.403 L 713.575 351.403 L 713.575 327.875 L 737.921 327.875 Z" fill-rule="evenodd" clip-path="url(#g1faec474be9_0_363.0)"/>
    <path fill="#ffab40" d="M 737.921 350.93 L 737.921 374.458 L 713.575 374.458 L 713.575 350.93 L 737.921 350.93 Z" fill-rule="evenodd" clip-path="url(#g1faec474be9_0_363.0)"/>
    <path stroke="#ffffff" stroke-width="1.0" stroke-linejoin="round" stroke-linecap="butt" d="M 737.921 350.93 L 737.921 374.458 L 713.575 374.458 L 713.575 350.93 L 737.921 350.93 Z" fill-rule="evenodd" clip-path="url(#g1faec474be9_0_363.0)"/>
    <path fill="#ffab40" d="M 713.575 350.93 L 713.575 374.458 L 689.228 374.458 L 689.228 350.93 L 713.575 350.93 Z" fill-rule="evenodd" clip-path="url(#g1faec474be9_0_363.0)"/>
    <path stroke="#ffffff" stroke-width="1.0" stroke-linejoin="round" stroke-linecap="butt" d="M 713.575 350.93 L 713.575 374.458 L 689.228 374.458 L 689.228 350.93 L 713.575 350.93 Z" fill-rule="evenodd" clip-path="url(#g1faec474be9_0_363.0)"/>
    <path fill="#ffab40" d="M 713.228 327.875 L 713.228 351.403 L 688.882 351.403 L 688.882 327.875 L 713.228 327.875 Z" fill-rule="evenodd" clip-path="url(#g1faec474be9_0_363.0)"/>
    <path stroke="#ffffff" stroke-width="1.0" stroke-linejoin="round" stroke-linecap="butt" d="M 713.228 327.875 L 713.228 351.403 L 688.882 351.403 L 688.882 327.875 L 713.228 327.875 Z" fill-rule="evenodd" clip-path="url(#g1faec474be9_0_363.0)"/>
    <path fill="#000000" fill-opacity="0.0" d="M 659.289 351.404 L 679.226 351.404" fill-rule="evenodd" clip-path="url(#g1faec474be9_0_363.0)"/>
    <path stroke="#595959" stroke-width="1.0" stroke-linejoin="round" stroke-linecap="butt" d="M 659.289 351.404 L 673.226 351.404" fill-rule="evenodd" clip-path="url(#g1faec474be9_0_363.0)"/>
    <path fill="#595959" stroke="#595959" stroke-width="1.0" stroke-linecap="butt" d="M 673.226 353.056 L 677.764 351.404 L 673.226 349.752 L 673.226 353.056 Z" fill-rule="evenodd" clip-path="url(#g1faec474be9_0_363.0)"/>
  </g>
</svg>
